<?xml version="1.0" encoding="UTF-8"?><svg id="a" xmlns="http://www.w3.org/2000/svg" viewBox="0 0 640.35 941.84"><defs><style>.b{stroke-width:0px;}</style></defs><path class="b" d="M1.2,889.75c-.18-119.32-.32-416.51-.6-535.83,0-3.99,1.7-5.92,4.82-7.78,33.33-19.84,66.57-39.82,99.93-59.6,3.17-1.88,4.17-3.89,4.14-7.48-.38-47.83-.52-95.66-.97-143.49-.05-5.01,1.72-7.66,5.88-10.29,62.79-39.68,125.43-79.59,188.17-119.34,12.73-8.07,8.37-7.64,20.46-.34,66.57,40.2,133.01,80.62,199.56,120.84,3.38,2.04,4.25,4.44,4.25,8.12.03,47,.22,94,.22,140.99,0,3.9.98,6.23,4.55,8.33,34.28,20.2,68.38,40.7,102.65,60.91,3.95,2.33,5.41,4.93,5.41,9.5.11,172.82.34,345.65.65,518.47,0,3.69-1.27,5.66-4.37,7.45-34.64,19.89-69.24,39.87-103.76,59.96-3.57,2.08-6.27,2.33-9.97.06-70.06-43.05-140.22-85.95-210.31-128.94-2.4-1.47-4.11-1.7-6.63-.08-66.85,42.88-133.78,85.64-200.62,128.54-2.98,1.91-4.78,1.74-7.83-.08-24.18-14.36-48.48-28.51-72.88-42.49-10.53-6.04-8.7,1.06-19.49-4.51-3.15-1.63-4.66-3.41-4.46-7.24.49-9.12-.62-18.45.86-27.37,1.89-11.42-1.97-22.94,1.91-34.02.61,17.94,1.29,36.01,1.77,54.08.08,2.94.73,4.96,3.41,6.53,33.74,19.81,54.78,27.04,88.49,46.89.41.24.91.32.69.24v-408.82c-.59-.29-.68-.33-1.27-.62-7.63,5.95-15.26,11.9-22.88,17.86-1.97,1.54-3.91,3.12-5.87,4.67-5.07,4.01-5.11,4.03-8.89-1.03-4.28-5.72-8.49-11.48-12.98-17.58-7.71,5.98-15.16,11.76-22.61,17.53-1.05.82-2.05,2.07-3.22,2.27-1.38.23-3.2-.1-4.25-.92-.5-.39-.15-3.09.64-3.72,9.24-7.38,18.57-14.64,28.03-21.74,2.5-1.88,4.23.1,5.71,2.13,4.37,6.04,8.81,12.04,13.48,18.4,9.95-7.88,19.56-15.49,29.48-23.34-2.93-1.57-5.56-2.65-7.78-4.29-1.08-.79-1.42-2.61-2.09-3.96,1.43-.53,3.11-1.83,4.24-1.45,4.69,1.55,9.34,3.35,13.7,5.66,1.17.62,1.71,3.32,1.72,5.07.13,21,.11,42,.13,63,.09,107.83.18,215.66.27,323.49,0,9.46,0,18.93,0,28.97,3.42-2.06,6.7-3.93,9.88-5.97,99.98-64.01,199.94-128.06,299.97-191.99,3.63-2.32,5.06-4.69,5.04-9.11-.23-38.83-.21-77.66-.09-116.49.01-3.59-.98-5.56-4.21-7.38-30.88-17.41-61.62-35.07-92.44-52.59-35.93-20.42-71.89-40.76-107.84-61.13-.85-.48-1.73-.89-3.09-1.58-.16,1.58-.4,2.79-.4,4,0,16.83.13,33.67,0,50.5-.02,3.14,1.17,4.6,3.8,6.1,60.46,34.44,120.85,68.99,181.25,103.54,5.19,2.97,5.04,4.58-.74,8.14-50.73,31.28-101.47,62.54-152.2,93.82-10.06,6.2-20.06,12.51-30.19,18.6-1.81,1.09-4.16,1.29-6.26,1.91-.52-2.01-1.5-4.02-1.5-6.03-.15-109.49-.22-218.98-.2-328.48,0-2.39,1.24-4.79,2.2-8.26-.49-.41-1.88-1.82-3.51-2.86-15.77-9.96-31.54-19.9-47.43-29.65-1.32-.81-3.87-.79-5.28-.06-10.64,5.51-21.32,10.99-31.59,17.15-4.31,2.58-7.33,2.07-11.27-.31-31.09-18.7-62.29-37.23-93.46-55.8-1.83-1.09-3.69-2.15-6.55-3.82,0,2.86,0,4.91,0,6.96-.2,112.33-.4,408.86-.61,521.19,0,4.17.15,1.36-.24,5.49M524.35,934.27c0-1.95,0-3.05,0-4.15-.02-28.66-.01-57.32-.06-85.97-.22-140.95-.48-281.91-.59-422.86,0-3.9-1.28-5.96-4.58-7.8-9.88-5.5-19.65-11.23-29.31-17.11-2.68-1.63-4.57-1.43-7.15.15-18.02,11.05-36.02,22.13-54.3,32.74-4.74,2.75-6.01,5.77-5.99,11.02.46,122.13.72,244.25.94,366.38,0,2.15-.96,4.3-1.47,6.45-2.12-.74-4.43-1.15-6.31-2.27-17.56-10.51-35.1-21.07-52.52-31.81-2.8-1.72-4.67-1.96-7.52-.02-8.25,5.62-16.78,10.83-25.18,16.23-5.15,3.31-10.26,6.67-16.1,10.46,70.23,42.97,139.83,85.56,210.14,128.58ZM530.2,934.07c2.31-1.26,3.75-2.02,5.16-2.83,31.11-18.01,62.17-36.12,93.38-53.95,4.1-2.35,5.69-4.75,5.68-9.61-.44-169.3-.71-338.6-1.01-507.9,0-1.42-.12-2.85-.21-4.87-2.06,1.13-3.65,1.93-5.17,2.83-30.77,18.27-61.45,36.67-92.36,54.69-4.69,2.73-6.16,5.59-6.15,10.91.34,168.3.49,336.6.68,504.91,0,1.65,0,3.3,0,5.84ZM517.57,130.71c-3.33-2.05-5.86-3.63-8.41-5.18-62.92-38.15-125.9-76.18-188.64-114.62-5.97-3.66-9.85-3.41-15.47.22-55.69,35.91-111.56,71.55-167.4,107.23-6.43,4.11-12.98,8.03-20.18,12.48,2.66,1.71,4.69,3.07,6.77,4.35,61.94,38.49,123.9,76.94,185.76,115.56,3.62,2.26,6.09,2.4,9.75.17,55.42-33.84,110.93-67.52,166.42-101.22,10.23-6.21,20.48-12.39,31.4-18.99ZM520.82,136.11c-2.79,1.63-4.51,2.59-6.18,3.61-63.32,38.49-126.59,77.06-190.04,115.34-5.14,3.1-6.85,6.3-6.82,12.15.33,68.83.4,137.66.53,206.49,0,4.91,0,9.83,0,15.14,1.5-.83,2.93-1.56,4.3-2.39,64.71-39.05,129.41-78.14,194.18-117.1,3.36-2.02,4.77-4.11,4.74-8.17-.34-64-.51-127.99-.71-191.99-.03-10.64,0-21.29,0-33.08ZM114.95,136.78c-.14,1.83-.26,2.64-.26,3.45.38,74.64.74,149.28,1.29,223.91.01,1.8,1.7,4.25,3.31,5.27,12.11,7.64,24.53,14.77,36.59,22.47,50.1,31.96,100.12,64.07,150.17,96.11,1.42.91,2.92,1.68,5.12,2.93,0-9.4-.02-17.7,0-26,.19-66.98.38-133.95.59-200.93,0-2.89-.18-5.13-3.23-7.02-60.86-37.67-121.62-75.5-182.4-113.3-3.49-2.17-7-4.32-11.18-6.89ZM209.78,552.5c-.11,2.42-.23,3.88-.22,5.34,0,15.83.16,31.67-.05,47.49-.05,3.85,1.13,5.96,4.49,7.86,23.49,13.24,46.87,26.68,70.27,40.08,6.01,3.44,6.08,5.34.36,8.95-23.8,15.01-47.59,30.03-71.45,44.93-2.51,1.57-3.7,3.15-3.67,6.28.17,16.16.06,32.33.08,48.49,0,1.06.23,2.11.4,3.58,59.77-36.95,119.07-73.62,178.73-110.5-59.78-34.25-118.95-68.14-178.93-102.5ZM210.72,433.53c-.31,1.44-.6,2.21-.61,2.98-.26,12.47-.31,24.94-.8,37.4-.17,4.24,1.29,6.49,4.97,8.57,33.47,18.87,66.8,37.99,100.28,56.85,1.53.86,4.5.63,6.09-.3,27.71-16.22,55-33.17,83.07-48.72,10.24-5.67,14.67-11.83,13.15-23.62-1.24-9.57-.25-19.43-.25-29.95-2.11,1.11-3.28,1.65-4.38,2.32-10.94,6.67-21.86,13.35-32.79,20.04-19.58,11.98-39.41,23.6-58.6,36.18-5.97,3.91-9.69,3.5-15.24-.18-28.72-19.01-57.7-37.62-86.6-56.36-2.61-1.69-5.27-3.31-8.29-5.21ZM492.28,390.84c10.81,6.33,20.77,11.99,30.53,17.98,2.86,1.76,4.88,1.53,7.64-.13,30.54-18.3,61.15-36.47,91.75-54.67,2.35-1.4,4.71-2.8,7.68-4.58-34.42-20.55-68.19-40.71-102.7-61.31,0,2.65,0,4.42,0,6.2.02,23.82-.04,47.64.13,71.46.03,3.5-1.17,5.38-4.14,7.06-10.13,5.7-20.11,11.68-30.89,17.99ZM146.16,393.01c-10.8-6.6-20.75-12.89-30.93-18.79-3.73-2.16-5.34-4.58-5.32-9.05.08-22.82-.19-45.63-.34-68.45-.01-1.7,0-3.41,0-5.76-33.66,20.15-66.4,39.75-99.35,59.47.86.72,1.21,1.09,1.63,1.34,31.16,18.56,62.41,36.96,93.41,55.79,5.21,3.17,9.04,3.56,14.25.29,8.39-5.26,17.31-9.69,26.66-14.83ZM416.85,489.27c-31.42,18.63-62,36.76-93.13,55.22,31.55,17.99,62.24,35.49,93.13,53.1v-108.32ZM280.05,657.88c-23.92-13.67-46.89-26.81-70.21-40.14v84.51c23.56-14.89,46.55-29.42,70.21-44.38ZM417.21,739.53c-17.58,11.27-34.64,22.21-52.31,33.54,17.83,10.82,34.88,21.16,52.31,31.74v-65.28Z"/><path class="b" d="M54.34,577.03c0,8.49.04,16.98-.02,25.46-.03,4.75-1.16,5.41-5.34,3.35-.3-.15-.58-.33-.86-.5-14.6-8.51-11.67-3.55-11.92-19.93-.21-13.48-.05-26.96.02-40.44.03-5.19,1.22-5.86,6.01-3.7q12.21,5.51,12.21,18.77c0,5.66,0,11.32,0,16.98h-.1ZM42.29,548.91c0,13.98.17,27.75-.1,41.52-.09,4.35,1.72,6.32,5.92,7.36.08-1.49.21-2.74.22-4,0-12.63-.21-25.26.07-37.88.1-4.45-1.74-6.3-6.1-7Z"/><path class="b" d="M76.35,592.2c0,7.48.01,14.96,0,22.44-.01,4.71-.99,5.29-5.29,3.24q-13.51-6.45-13.5-21.51c0-10.8-.05-21.61,0-32.41.02-5.41,2.26-6.78,7.27-4.6q11.44,4.97,11.45,17.39c0,5.15,0,10.31,0,15.46h.07ZM70.25,610.24c0-12.65-.15-24.79.08-36.92.08-4.45-2.1-6.02-6.16-6.84,0,12.02.19,23.68-.1,35.33-.11,4.35,1.4,6.88,6.18,8.43Z"/><path class="b" d="M90.49,550.97c-1.37-.33-2.76-.67-4.12-1v75.69c-3.87.42-6.37-1.45-6.41-6.05-.2-24.46-.34-48.91-.5-73.37-.03-4.09,2.23-4.86,5.59-3.7,5.48,1.88,6.98,4.18,5.44,8.43Z"/><path class="b" d="M33.27,594.54c-7.21-1.24-12.67-4.49-17.78-8.3-.89-.66-.98-2.73-1-4.15-.1-7.3-.11-14.61-.04-21.91.05-4.43,1.61-5.41,5.54-3.71.15.07.29.17.44.24q12.86,6.01,12.84,20.36c0,5.6,0,11.2,0,17.47ZM27.23,585.4c0-4.62-.32-8.63.08-12.57.51-5.12-1.72-7.61-6.87-8.59,0,4.73.36,9.21-.1,13.61-.52,5.02,1.96,6.76,6.88,7.55Z"/><path class="b" d="M572.53,523.14c-2.41,1.87-4.63,3.08-6.17,4.87-5.62,6.52-5.54,6.59-12.69,1.55-.68-.48-1.34-1-2.04-1.44-3.74-2.32-4.24-5.24-1.73-8.81,2.33-3.29,3.83-6.7.9-10.55-.17-.03-.5-.2-.78-.12-8.18,2.12-8.54,1.86-8.7-6.47-.03-1.67.15-3.36-.1-4.99-.85-5.58,1.02-9.29,6.23-12.06,5.48-2.91,6.08-8.57,2.12-13.55-1.91-2.4-2.23-4.54-.39-7.18,2.17-3.14,3.98-6.53,5.99-9.79q3.8-6.17,10.54-3.6c4.82-3.32,8.5-7.07,8.05-13.74-.12-1.85,2-4.41,3.78-5.69,2.93-2.12,6.44-3.44,9.68-5.13,3.53-1.84,5.71-1.13,6.21,3.12.21,1.79.61,3.55,1.23,7.08,3.07-2.44,5.66-3.92,7.47-6.06,4.58-5.43,4.66-5.59,10.51-1.92,1.27.79,2.52,1.62,3.8,2.4,3.06,1.86,3.98,4.24,2.12,7.55-1.14,2.02-2.33,4.1-2.9,6.31-.43,1.66.08,3.56.18,5.5q10.12-2.3,10.41,7.31c.05,1.66-.13,3.37.16,4.99.94,5.31-1.15,8.66-5.83,11.29-5.08,2.85-5.77,9.44-2.59,14.16.98,1.44,1.14,4.12.52,5.81-1.13,3.08-3.33,5.75-4.71,8.77-2.21,4.85-4.78,8.17-11,5.96-2.66-.95-7.88,5.22-8.49,8.9-.47,2.85-.59,6.8-2.43,8.18-4.17,3.14-9.24,5.12-14.1,7.24-.6.26-2.54-1.31-3.08-2.41-.93-1.88-1.24-4.07-2.19-7.47ZM607.55,433.27c-2.93,4.08-5.38,7.75-11.27,8.75-7.5,1.26-8.16-3.15-9.14-7.87-5.48,1.14-8.1,3.68-8.05,9.3.06,6.94-6.65,9.52-10.65,13.69-1.2,1.25-4.8.19-7.74.19-1.43,2.38-3.22,5-4.58,7.82-.51,1.06-.51,2.96.12,3.86,4.08,5.77,2.75,16.68-3.64,20.21-5.94,3.28-5.65,7.59-4.79,12.33,3,.28,6.39-.41,8.11.98,3.45,2.78,3.88,12.08,1.68,16.13-.69,1.27-1.32,2.59-2.07,4.07,1.53,1.07,2.85,1.99,4.45,3.12,1.6-1.87,3.09-3.42,4.36-5.13,3.28-4.42,8.22-2.75,12.42-3.01.95-.06,2.16,4.15,3.28,6.38.14.28.42.49,1.24,1.41,2.21-2.14,6.09-4.15,6.16-6.29.24-7.56,4.86-11.75,10.1-15.58,1.67-1.22,4.33-1.04,6.49-1.68,1.51-.45,3.46-.79,4.28-1.89,1.76-2.35,2.92-5.15,4.28-7.66-1.49-1.91-3.24-3.4-4-5.29-1.22-3.03,4.16-15.65,7.12-17.68,5.3-3.62,5.93-5.86,3.88-11.18-3.09-.62-7.1-.38-7.76-1.75-2.36-4.89-5.37-10.22-.97-15.78.87-1.1,1.19-2.63,1.87-4.19-1.76-1.1-3.26-2.05-5.17-3.24Z"/><path class="b" d="M562.81,605.44c-3.8,2.21-6.4,8.84-13.73,4.07-7.12-4.62-1.6-9.29-1.47-12.81-2.85-1.36-6.08-1.83-6.92-3.5-2.37-4.71-.93-12.65,2.13-14.87,4.2-3.05,6.93-6.15,3.02-11.43-.69-.93-.11-3.25.53-4.62,1.47-3.16,3.13-6.28,5.15-9.1.89-1.23,2.93-2.48,4.33-2.35,5.07.46,6.74-2.5,7.46-6.57.76-4.27,10.2-10.97,14.18-9.68,2.04.66,3.87,1.95,5.77,2.94,1.36-1.98,3.67-7.07,9.48-2.93,2.41,1.72,5.6,3.65,6.31,6.1.68,2.36-1.38,5.52-1.97,7.45,2.7,1.49,5.82,2.19,6.99,4.08,2.01,3.25-.05,13.17-2.43,14.87-4.23,3.02-6.9,6.16-2.73,11.3.68.84.41,2.99-.16,4.18-1.66,3.44-3.44,6.88-5.71,9.92-.97,1.3-3.33,2.36-4.95,2.22-4.61-.4-6.25,1.87-6.63,5.89-.42,4.44-9.32,11.82-13.49,10.55-1.85-.56-3.05-3.28-5.15-5.72ZM592.1,581.7c-3.55-5.1-2.1-13.47,2.44-17.29,1.85-1.56,2.86-4.13,4.58-6.74-8.27-1.08-10.4-4.93-8.18-12.1.41-1.32.11-2.86.14-4.3-1.24.71-2.75,1.16-3.68,2.16-4.06,4.36-10.18,3.76-13.42-2.6-1.79,2.3-3.98,3.96-4.53,6.04-1.53,5.87-6.11,9.89-11.96,11.5-1.95.54-4.66,4.9-4.14,6.64,1.9,6.33.6,12.54-4.47,16.98-1.48,1.3-2.06,3.63-3.06,5.48,6.05-.69,7.92,2.57,8.3,6.13.36,3.33-.73,6.81-1.31,11.22,6.18-3.61,12.06-12.17,19.32-.76,1.19-2.01,2.74-3.54,2.98-5.26.99-6.86,6.69-11.9,13.46-11.29,1.16-1.92,2.35-3.9,3.52-5.83Z"/><path class="b" d="M312.82,208.66c-1.26-.67-2.44-1.22-3.54-1.91-38.71-24.1-77.42-48.22-116.13-72.33-4.5-2.8-4.64-4.24-.25-7.05,39.15-25,78.31-49.97,117.57-74.79,1.55-.98,4.68-1.17,6.2-.27,35.62,21.18,71.13,42.55,106.65,63.91,5.13,3.09,10.22,6.27,15.26,9.5,4.72,3.02,4.67,4.94-.1,7.79-27.13,16.25-54.29,32.45-81.39,48.74-12.98,7.8-25.86,15.79-38.8,23.64-1.69,1.02-3.53,1.79-5.47,2.76ZM388,156.26c-2.32-1.52-3.81-2.55-5.36-3.5-21.59-13.19-43.23-26.3-64.73-39.63-3.29-2.04-5.68-2.1-8.99-.02-21.98,13.82-44.11,27.43-66.17,41.11-.78.49-1.49,1.11-2.53,1.89,1,.77,1.59,1.32,2.26,1.73,22.18,13.82,44.42,27.55,66.52,41.52,3.19,2.02,5.47,1.84,8.52-.05,14.13-8.8,28.38-17.41,42.59-26.08,9.06-5.53,18.13-11.03,27.9-16.98ZM433,129.45c-39.26-23.63-77.34-46.56-116.4-70.07,0,15.46-.04,29.71.1,43.96,0,.99,1.18,2.3,2.16,2.91,24.2,14.96,48.43,29.88,72.73,44.69,1.19.72,3.39,1.14,4.45.53,11.93-6.92,23.72-14.06,36.97-22ZM199.31,130.73c9.94,6.27,19,11.55,27.55,17.55,4.84,3.4,8.59,3.22,13.45.14,22.65-14.29,45.52-28.23,68.2-42.49,1.28-.8,2.13-3.23,2.17-4.93.25-11.15.23-22.31.3-33.46.01-2.41,0-4.81,0-8.3-37.62,24.08-74.15,47.46-111.67,71.48Z"/><path class="b" d="M483.34,276.7c0,21.16-.08,42.32.08,63.47.03,3.62-1.19,5.76-4.27,7.6-39.52,23.72-78.97,47.56-118.46,71.34-5.31,3.2-7.24,2.12-7.21-4.02.24-42.98.46-85.96.91-128.94.02-2,1.62-4.79,3.33-5.84,39.39-24.25,78.9-48.33,118.41-72.39,5.55-3.38,7.31-2.29,7.31,4.31.02,21.49,0,42.98,0,64.47-.04,0-.08,0-.12,0ZM360.1,359.28c.86-.11,1.23-.05,1.48-.2,23.5-14.17,47.03-28.3,70.41-42.68,1.51-.93,2.65-3.71,2.66-5.63.07-22.31-.11-44.63-.25-66.94,0-.87-.3-1.74-.51-2.89-1,.52-1.59.78-2.14,1.12-22.84,13.98-45.71,27.92-68.45,42.08-1.55.97-2.9,3.58-2.93,5.45-.27,15.82-.22,31.64-.26,47.46-.02,7.29,0,14.59,0,22.24ZM474.22,343.6c-11.6-7.24-22.52-13.88-33.23-20.85-2.87-1.87-4.89-1.64-7.63.02-23.48,14.24-47.06,28.3-70.48,42.62-1.56.96-2.93,3.57-2.98,5.45-.35,12.49-.33,24.99-.39,37.48,0,1.2.26,2.41.46,4.16,38.17-23,75.77-45.67,114.26-68.87ZM477.27,214.3c-11.99,7.3-23.28,14.03-34.35,21.09-1.39.89-2.38,3.49-2.38,5.3-.07,23.66-.01,47.33.3,70.99.03,2,1.6,4.71,3.29,5.83,9.72,6.42,19.69,12.46,29.6,18.6,1.04.64,2.2,1.1,3.56,1.77v-123.59Z"/><path class="b" d="M276.36,351.22c0,20.65.02,41.3-.01,61.95,0,7.07-1.9,8.17-7.98,4.42-37.53-23.14-75.01-46.36-112.57-69.45-3.24-1.99-4.35-4.32-4.34-8.1.13-41.47.09-82.94.1-124.42,0-6.84,1.71-7.93,7.53-4.38,37.79,23.06,75.5,46.22,113.32,69.23,3.74,2.28,4.98,4.92,4.93,9.29-.25,20.48-.11,40.97-.11,61.46-.29,0-.57,0-.86,0ZM199.04,242.47c-.12,2.08-.25,3.2-.25,4.31.01,20.82.14,41.65-.02,62.47-.03,3.83,1.28,5.99,4.49,7.98,21.93,13.6,43.73,27.39,65.59,41.1.63.4,1.41.56,2.43.96.08-1.73.2-3.03.2-4.33.07-17.99-.52-36.02.44-53.96.56-10.38-2.43-16.35-11.81-21.54-20.49-11.35-40.16-24.2-61.08-36.99ZM160.22,343.65c37.15,23.01,73.51,45.53,111.16,68.84,0-15.68.06-29.79-.11-43.9-.01-1.14-1.31-2.63-2.41-3.32-22.99-14.41-46.03-28.74-69.11-43-1.1-.68-3.12-1.25-4-.71-11.63,7.06-23.13,14.34-35.53,22.09ZM157.49,338.22c11.57-7.23,22.48-13.9,33.17-20.91,1.39-.91,2.31-3.55,2.33-5.4.15-17.15.12-34.31,0-51.47-.05-7.29,1.96-16-1.31-21.48-3.4-5.72-12-8.38-18.38-12.29-5.05-3.09-10.17-6.06-15.82-9.41v120.95Z"/><path class="b" d="M603.27,473.39c-1.17,10.66-6.17,20.8-16.51,27.73-11.1,7.45-21.85,2.06-22.12-11.31-.25-12.72,4.71-23.32,15.39-30.7,4.95-3.42,10.35-5.52,16.3-2.34,4.5,2.41,7.13,8.31,6.93,16.61ZM596.56,474.31c.14-10.97-3.71-14.4-10.38-11.4-9.38,4.21-16.75,18-15.06,28.18,1.11,6.71,5.06,8.77,11.01,5.25,9.1-5.39,13.59-13.75,14.43-22.02Z"/><path class="b" d="M558.19,576.6c.41-7.05,4.03-14.42,11.36-19.69,3.84-2.76,8.25-3.81,12.61-1.2,4.07,2.44,5.6,6.38,5.34,11.05-.47,8.58-4.09,15.67-10.64,21.11-3.74,3.1-8.11,4.61-12.94,2.41-3.97-1.81-5.83-5.75-5.74-13.68ZM564.29,579.2c.57,1.12,1.14,4.09,2.68,4.73,1.57.66,4.5-.44,6.12-1.7,4.79-3.73,7.32-9,7.87-14.97.17-1.87-.64-4.78-1.98-5.59-1.36-.82-4.34-.25-5.9.78-5.5,3.61-7.63,9.33-8.77,16.75Z"/></svg>