<?xml version="1.0" encoding="UTF-8"?><svg id="a" xmlns="http://www.w3.org/2000/svg" viewBox="0 0 767.43 902.33"><defs><style>.b{stroke-width:0px;}</style></defs><path class="b" d="M709.11,491.95c10.24,5.87,19.31,11.05,28.37,16.26,8.37,4.81,16.68,9.72,25.09,14.46,2.74,1.54,3.92,3.38,3.93,6.71.19,50.83.47,101.65.93,152.48.04,4.37-1.13,6.85-5.11,9.01-49.14,26.67-98.2,53.49-147.18,80.45-4.23,2.33-7.37,2.31-11.33-.4-9.6-6.55-19.49-12.69-29.87-19.39-.16,1.91-.37,3.29-.37,4.68,0,9.83-.07,19.67.1,29.5.06,3.16-.84,5.19-3.67,6.89-59.73,36-119.44,72.04-179.04,108.27-4.55,2.77-7.66,1.13-11.33-1.03-57.07-33.62-113.94-67.59-171.44-100.45-11.66-6.66-16.85-13.64-14.49-26.85,1.11-6.22.19-12.81.19-19.88-1.87,1.07-3.3,1.81-4.64,2.67-7.41,4.8-15.07,9.26-22.09,14.56-5.53,4.17-9.93,4.19-16.08.78-35.78-19.87-71.83-39.26-107.79-58.81-12.71-6.91-25.35-13.97-38.18-20.67-3.96-2.07-5.16-4.59-5.11-9.04.55-50.66.91-101.32,1.16-151.98.02-3.45,1.02-5.39,4.01-7.1,16.02-9.2,31.91-18.62,47.84-27.97,1.41-.83,2.77-1.72,4.72-2.94-5.18-3.15-9.88-6.09-14.66-8.9-12.91-7.59-25.8-15.22-38.81-22.63-2.81-1.6-3.95-3.33-3.94-6.64.08-73.83.07-147.65-.06-221.48,0-3.83,1.18-6.06,4.43-8,67.71-40.48,135.39-81.02,203-121.68,3.95-2.38,7.05-2.61,10.87.02,5.18,3.56,10.69,6.65,17.27,10.7,0-7.18.26-13.39-.09-19.56-.27-4.73,1.43-7.55,5.55-9.98,46.15-27.24,92.22-54.62,138.23-82.09,3.86-2.3,6.99-2.67,10.96-.27,46.46,28.02,93.02,55.89,139.44,83.99,1.71,1.04,3.14,3.89,3.26,5.98.4,6.97.15,13.98.15,22.07,6.05-3.71,11.67-6.79,16.86-10.47,3.97-2.82,7.16-2.65,11.27-.16,66.96,40.46,133.99,80.8,201.05,121.11,3.32,1.99,4.81,4.25,4.81,8.35-.14,73.66-.13,147.32-.02,220.98,0,3.53-1.26,5.33-4.19,7.01-17.73,10.19-35.35,20.56-54.01,31.46ZM9.86,228.59c2.71,1.75,4.87,3.23,7.11,4.58,121.01,73.03,242.03,146.03,362.97,219.17,4.1,2.48,6.85,2.56,11.01.03,120.77-73.73,241.63-147.3,362.47-220.9,1.35-.82,2.64-1.75,4.51-2.99-2.79-1.71-5.01-3.11-7.26-4.46-26.95-16.23-53.89-32.46-80.85-48.66-36.66-22.04-73.35-44.02-109.93-66.17-3.03-1.83-5.12-1.83-8,.09-5.95,3.97-12.15,7.56-18.26,11.28-6.76,4.12-13.55,8.2-20.84,12.62,2.01,1.34,3.45,2.39,4.97,3.31,47.47,28.62,94.9,57.32,142.48,85.77,10.02,5.99,9.41,7.38-.02,13.06-90.39,54.46-180.71,109.06-270.98,163.72-3.11,1.88-5.37,2.07-8.55.16-83.61-50.22-167.28-100.33-250.93-150.47-8.85-5.3-17.69-10.63-26.46-16.06-4.31-2.66-4.26-5.05-.05-7.8,1.39-.91,2.86-1.71,4.29-2.56,46.87-27.98,93.75-55.97,140.62-83.97,2.65-1.58,5.19-3.35,8.11-5.24-13.49-8.24-26.49-16-39.27-24.1-3.08-1.96-5.12-1.62-8.04.13-55.07,33.1-110.2,66.09-165.31,99.12-11.1,6.65-22.17,13.37-33.76,20.36ZM51.55,480.8c0-2.38,0-4.17,0-5.97-.04-50.16-.11-100.33-.03-150.49,0-2.4,1.3-4.8,1.99-7.19,2.41.73,5.08,1,7.17,2.26,14.28,8.55,28.41,17.36,42.65,25.99,75.86,46.01,151.73,92.02,227.66,137.93,3.69,2.23,5.24,4.72,5.22,9.17-.19,34.5-.12,69-.12,103.49.01,70.16.04,140.33.05,210.49,0,6.74-1.62,7.73-7.18,4.46-32.41-19.09-64.8-38.2-97.2-57.3-10.27-6.05-20.55-12.1-31.31-18.43-.11,1.74-.24,2.84-.25,3.94-.17,14.16-.17,28.33-.59,42.49-.12,4.11,1.39,6.21,4.81,8.21,58.17,34.08,116.26,68.29,174.37,102.46,1.19.7,2.49,1.23,4.25,2.1,0-2.05,0-3.36,0-4.66-.21-141.49-.43-282.98-.54-424.47,0-3.29-1.09-4.99-3.83-6.65C255.97,384.58,133.33,310.47,10.66,236.39c-1.22-.73-2.53-1.3-4.09-2.09-.11,1.12-.22,1.75-.22,2.38,0,71.5-.03,142.99.13,214.49,0,1.79,1.64,4.27,3.24,5.24,12.8,7.79,25.77,15.29,38.69,22.87.81.47,1.69.82,3.14,1.52ZM389.13,894.51c1.38-.63,1.99-.83,2.53-1.16,57.8-35.03,115.6-70.04,173.31-105.21,1.39-.85,2.44-3.41,2.46-5.19.16-14.5.04-29-.01-43.5,0-1.1-.15-2.19-.27-3.81-1.72.91-3.03,1.53-4.28,2.27-35.74,21.31-71.46,42.65-107.21,63.95-5.57,3.32-11.17,6.62-16.89,9.67-3.89,2.07-5.43,1-5.63-3.42-.05-1,0-2,0-3-.04-104.66-.06-209.32-.22-313.98,0-4.01,1.73-5.95,4.8-7.82,49.67-30.13,99.31-60.31,148.93-90.52,40.52-24.67,80.99-49.42,121.53-74.06,6.67-4.06,8.15-3.11,8.15,4.61,0,50.33,0,100.66.01,150.99,0,1.76,0,3.52,0,5.97,2.11-1.13,3.55-1.83,4.94-2.65,11.49-6.73,22.87-13.65,34.51-20.11,3.95-2.19,5.5-4.57,5.49-9.22-.15-69.66-.07-139.33-.07-208.99,0-1.57-.15-3.15-.26-5.25-1.97,1.1-3.41,1.85-4.78,2.69-13.34,8.18-26.64,16.42-40,24.57-106.61,64.97-213.19,129.98-319.91,194.76-5.66,3.44-7.68,7.05-7.66,13.72.34,139.32.41,278.65.53,417.97,0,1.99,0,3.98,0,6.69ZM704.24,494.69c-2.3,1.18-3.63,1.78-4.89,2.51-43.21,24.98-86.41,49.99-129.67,74.89-2.57,1.48-3.3,3.15-3.27,5.96.52,44.81.94,89.63,1.38,134.44.03,2.8,0,5.6,0,9.09,2.31-.92,3.81-1.49,5.29-2.12,10.41-4.41,20.81-8.84,31.22-13.24,5.77-2.44,6.94-1.61,7.04,4.75.27,17.16.56,34.31.86,51.47.02.88.23,1.75.4,2.96,1.21-.6,1.95-.93,2.66-1.31,47.46-25.89,94.91-51.8,142.42-77.6,2.77-1.5,3.6-3.2,3.58-6.23-.41-48.15-.71-96.29-1.04-144.44,0-.77-.14-1.55-.26-2.78-1.72.63-3.12,1.02-4.42,1.63-14.61,6.84-29.21,13.68-43.78,20.59-6.99,3.31-7.54,3.01-7.54-4.69,0-18.29,0-36.59,0-55.89ZM244.57,181.14c1.76,1.19,2.68,1.86,3.65,2.46,44.22,27.53,88.48,55,132.62,82.65,3.34,2.09,5.59,1.99,8.86-.07,43.34-27.37,86.77-54.57,130.18-81.84,1.3-.82,2.51-1.8,4.25-3.07-6.02-3.38-11.3-6.51-16.73-9.33-3.01-1.56-4.23-3.52-4.19-7.04.18-19.16.19-38.32.01-57.47-.03-3.69,1.28-5.72,4.41-7.45,5.73-3.17,11.24-6.76,17.28-10.44-1.16-.81-1.65-1.21-2.19-1.53-44.36-26.61-88.76-53.17-133.05-79.91-3.35-2.02-5.65-1.92-8.94.05-44.29,26.43-88.67,52.71-133.02,79.03-1.04.62-1.99,1.41-3.37,2.4,6.19,3.84,11.79,7.42,17.5,10.81,2.5,1.49,3.81,3.2,3.79,6.33-.12,19.82-.12,39.65.02,59.47.02,3.18-1.31,4.81-3.97,6.12-5.5,2.69-10.89,5.6-17.1,8.83ZM199.15,721.37c.18-1.25.3-1.75.31-2.24.66-46.81,1.28-93.61,2.05-140.42.06-3.51-1.16-5.31-4.12-7.01-43.15-24.74-86.23-49.59-129.33-74.41-1.1-.64-2.27-1.16-3.82-1.95-.09,1.95-.2,3.4-.2,4.85-.01,16.99-.01,33.99,0,50.98,0,6.9-1.26,7.65-7.64,4.64-14.58-6.89-29.18-13.74-43.78-20.58-1.56-.73-3.18-1.34-5.04-2.12-.11,1.38-.2,2.04-.2,2.7-.39,48.31-.73,96.62-1.22,144.93-.03,3.17,1.15,4.62,3.8,6.06,47.21,25.65,94.37,51.4,141.55,77.11,1.09.59,2.3.97,4.71,1.96,0-19.23-.03-37.54.02-55.84.02-6.05,1.35-6.86,6.92-4.43,11.86,5.17,23.69,10.39,36,15.78ZM67.85,489.58c1.07.82,1.67,1.38,2.36,1.78,43.79,25.27,87.62,50.49,131.35,75.85,3.01,1.75,4.85.56,7.18-.88,39.07-24.11,78.16-48.19,117.25-72.26,4.69-2.89,4.75-3.75,0-6.61-21.21-12.82-42.46-25.56-63.62-38.46-2.44-1.48-4.18-1.62-6.69-.08-14.46,8.87-29.09,17.46-43.54,26.34-3.34,2.05-6.11,2.4-9.67.51-17.62-9.35-35.39-18.43-53.02-27.77-2.48-1.31-4.27-1.43-6.76,0-13.71,7.85-27.52,15.52-41.33,23.18-11.03,6.12-22.11,12.15-33.51,18.4ZM438.32,490.59c1.89,1.36,3.03,2.27,4.26,3.03,39.14,24.37,78.3,48.7,117.38,73.17,2.77,1.73,4.6,1.33,7.17-.17,29.62-17.25,59.31-34.39,88.97-51.56,14.51-8.4,29.01-16.82,43.95-25.48-1.02-.71-1.62-1.21-2.29-1.58-24.33-13.41-48.64-26.84-73.05-40.1-1.38-.75-3.85-.65-5.29.08-18.07,9.23-36.09,18.56-54.01,28.09-3.39,1.8-5.93,1.65-9.12-.36-13.67-8.58-27.56-16.82-41.21-25.43-3.89-2.45-6.92-2.41-10.86.01-20.56,12.64-41.29,24.99-61.95,37.46-1.1.66-2.09,1.5-3.95,2.84ZM329.86,499.08c-1.65.88-2.66,1.34-3.6,1.92-38.38,23.68-76.73,47.41-115.17,71.01-2.84,1.74-3.61,3.72-3.65,6.86-.52,45.98-1.16,91.96-1.75,137.94-.02,1.4.13,2.8.22,4.44.9-.37,1.37-.49,1.77-.74,25.81-15.85,51.58-31.76,77.45-47.5,2.63-1.6,3-3.54,3-6.16-.03-23.83.07-47.65-.04-71.47-.02-3.39,1-5.45,3.97-7.22,11.28-6.75,22.32-13.9,33.62-20.62,3.11-1.85,4.32-3.85,4.28-7.49-.2-16.49-.09-32.99-.09-49.48,0-3.61,0-7.22,0-11.46ZM439.53,499.1c-.14,1.17-.27,1.78-.27,2.38-.01,19.82-.1,39.64.13,59.45.02,1.83,1.65,4.26,3.26,5.36,10.56,7.25,21.24,14.33,32.05,21.21,3.46,2.2,4.85,4.64,4.81,8.85-.22,23.31-.07,46.63-.17,69.94-.01,2.94.69,4.75,3.39,6.4,25.11,15.38,50.1,30.96,75.13,46.46,1.04.64,2.18,1.12,3.74,1.92,0-2.29.01-3.94,0-5.59-.39-45.46-.85-90.92-1.07-136.39-.02-3.91-1.39-5.92-4.53-7.86-37.62-23.28-75.17-46.68-112.74-70.04-1.07-.67-2.2-1.25-3.73-2.11ZM240.37,186.15c0,23.18.09,45.16-.09,67.14-.03,3.5,1.23,5.31,4.07,7.03,28.88,17.52,57.65,35.22,86.54,52.72,3.7,2.24,5.26,4.78,5.16,9.21-.28,12.65.08,25.32-.15,37.97-.07,3.69,1.21,5.62,4.33,7.41,10.25,5.87,20.29,12.09,30.42,18.17,3.65,2.19,7.31,4.34,11.63,6.9,0-2.5,0-4.11,0-5.73,0-35.65-.09-71.29.12-106.94.02-4.23-1.28-6.54-4.79-8.71-42.59-26.34-85.09-52.82-127.62-79.26-2.92-1.81-5.85-3.6-9.62-5.91ZM528.32,186.82c-1.33.57-1.82.7-2.22.95-44.98,28.19-89.98,56.37-134.85,84.74-1.61,1.02-2.79,4.01-2.8,6.09-.16,36.32-.11,72.64-.08,108.96,0,1.22.2,2.45.36,4.32,14.49-8.77,28.45-17.12,42.24-25.74,1.25-.78,1.94-3.34,1.96-5.09.14-12.49.33-25-.11-37.48-.19-5.29,1.89-8.05,6.16-10.66,28.43-17.31,56.68-34.91,85.11-52.21,3.32-2.02,4.43-4.16,4.33-7.93-.27-9.66-.1-19.32-.1-28.99,0-12.12,0-24.24,0-36.96ZM657.99,356.42c-47.8,29.21-94.82,57.94-142.33,86.97,14.26,8.86,27.85,17.22,41.32,25.76,2.87,1.82,5.14,1.78,8.12.2,17.49-9.26,35.13-18.25,52.63-27.49,3.14-1.66,5.74-1.77,8.82.06,5.58,3.3,11.36,6.27,17.06,9.37,4.61,2.51,9.22,5.01,14.37,7.8v-102.68ZM110.32,458.91c1.93-.98,3.39-1.67,4.81-2.46,8.74-4.82,17.53-9.54,26.16-14.54,3.43-1.99,6.2-1.84,9.7.04,17.14,9.19,34.47,18.04,51.65,27.17,3,1.59,5.25,1.55,8.17-.28,11.56-7.24,23.29-14.2,34.96-21.25,2.19-1.32,4.41-2.58,7.31-4.27-47.95-29.09-95.06-57.67-142.76-86.61v102.2ZM329.93,361.07c0-12.23-.38-23.22.16-34.17.28-5.7-1.89-8.6-6.53-11.38-28.25-16.92-56.29-34.18-84.51-51.15-3.61-2.17-4.93-4.62-4.83-8.79.27-11.32.09-22.65.09-33.97,0-1.92,0-3.83,0-6.54-24.7,15.22-48.55,29.91-73.37,45.2,56.52,33.72,112.26,66.97,169,100.81ZM606.87,260.21c-24.52-15.23-48.17-29.91-72.46-44.99,0,14.17-.16,27.31.09,40.44.08,4.18-1.29,6.6-4.87,8.79-28.96,17.7-57.81,35.58-86.63,53.5-1.52.95-3.59,2.68-3.62,4.09-.28,12.76-.16,25.53-.16,39.09,56.07-33.75,111.43-67.08,167.65-100.93ZM254.88,698.74c25.23,14.85,49.87,29.35,74.77,44v-170.46c-11.06,6.88-21.4,13.45-31.89,19.75-2.64,1.58-3.53,3.35-3.52,6.36.1,23.15-.12,46.29.14,69.44.06,5-1.54,7.87-5.81,10.35-11.2,6.51-22.13,13.46-33.7,20.56ZM109.4,228.15c.47.77.57,1.14.8,1.28,14.21,8.66,28.41,17.34,42.7,25.88.99.59,2.96.57,3.95-.03,25-15.28,49.95-30.64,74.8-46.16,1.34-.84,2.37-3.17,2.44-4.86.28-6.82.29-13.67.08-20.49-.1-3.15,1.14-4.91,3.81-6.24,6.11-3.03,12.16-6.18,18.17-9.4,1.23-.66,3.08-1.83,3.11-2.8.24-8.67.14-17.35.14-26.57-50.58,30.14-100.28,59.76-150,89.39ZM57.49,324.64c0,3.01,0,4.81,0,6.6.02,18.14.03,36.29.08,54.43.08,31.79.16,63.59.29,95.38.02,5.49,1.47,6.26,6.25,3.62,11.94-6.57,23.87-13.16,35.86-19.64,2.37-1.28,3.72-2.6,3.71-5.67-.13-34.46-.07-68.91-.17-103.37,0-1.45-.62-3.59-1.67-4.25-14.36-8.95-28.85-17.69-44.34-27.11ZM710.33,324.46c-15.36,9.36-29.72,18.02-43.92,26.93-1.24.78-1.99,3.27-2,4.97-.11,34.14-.03,68.29-.13,102.43,0,3.1,1.03,4.76,3.72,6.18,11.62,6.12,23.14,12.44,34.68,18.73,6.11,3.33,7.68,2.49,7.67-4.3,0-50.13-.02-100.27-.03-150.4,0-1.12,0-2.25,0-4.55ZM659.08,228.67c-50.25-30.16-99.64-59.81-149.8-89.92,0,8.51-.21,16.12.15,23.71.09,1.83,1.61,4.25,3.19,5.24,5.77,3.61,11.8,6.84,17.83,10,2.83,1.48,4.13,3.35,4.01,6.67-.23,6.32.09,12.66-.11,18.98-.1,2.98.74,4.93,3.35,6.55,24.17,15.01,48.26,30.15,72.44,45.14,1.14.7,3.34.95,4.4.32,14.61-8.6,29.1-17.4,44.52-26.69ZM513.18,698.84c-1.53-1.05-2.58-1.84-3.68-2.52-9.91-6.1-19.74-12.34-29.79-18.2-4.62-2.69-6.63-5.81-6.53-11.5.39-22.64.18-45.29.08-67.93,0-1.82-.31-4.5-1.48-5.31-10.45-7.25-21.13-14.17-32.1-21.43v170.95c24.77-14.84,48.95-29.34,73.51-44.06ZM329.48,804.11c.32-1.07.57-1.51.57-1.95.01-16.31.08-32.63-.13-48.94-.02-1.55-1.47-3.7-2.87-4.53-25.12-15-50.33-29.85-75.58-44.63-1.18-.69-3.36-1.03-4.38-.4-14.02,8.54-27.92,17.28-42.88,26.61,42.2,24.88,83.62,49.29,125.28,73.85ZM439.25,804.48c41.84-24.97,82.62-49.3,123.57-73.74-.81-.99-1.04-1.47-1.42-1.71-13.36-8.45-26.7-16.93-40.16-25.23-1.04-.64-3.22-.45-4.36.22-25.07,14.82-50.08,29.74-75.03,44.75-1.19.72-2.48,2.48-2.5,3.77-.17,16.95-.11,33.91-.11,51.94ZM162.16,765.73c6.45-4.19,12.24-8.81,18.73-11.97,10.03-4.89,15.74-11.52,13.31-23.26-.28-1.34.2-2.83.34-4.43-10.66-4.67-21.11-9.24-32.38-14.18v53.84ZM10.41,527.31c16.35,7.65,31.46,14.73,46.83,21.92v-49.58c-15.71,9.28-30.76,18.17-46.83,27.66ZM710.58,548.99c15.74-7.39,30.82-14.47,46.77-21.96-15.98-9.25-31.11-18.01-46.77-27.07v49.03ZM605.59,764.98v-52.79c-11.48,4.96-22.18,9.57-31.87,13.76,0,5.31-.19,9.75.09,14.17.12,1.78.77,4.23,2.04,5.11,9.65,6.67,19.53,13.03,29.73,19.75ZM527.37,95.06c-6.07,3.74-11.29,6.9-16.44,10.18-.73.47-1.56,1.5-1.57,2.29-.13,6.53-.07,13.07-.07,20.43,6.05-3.59,11.23-6.52,16.22-9.74.99-.64,1.75-2.38,1.78-3.64.18-6.14.08-12.3.08-19.52ZM259.5,127.95c0-7.23.07-13.19-.06-19.16-.03-1.17-.54-2.82-1.4-3.39-5.02-3.35-10.2-6.45-16.02-10.07,0,7.29-.09,13.57.08,19.84.03,1.09.91,2.56,1.84,3.17,4.8,3.14,9.75,6.06,15.56,9.61Z"/><path class="b" d="M680.21,641.83c-2.89,1.52-5.97,2.8-8.63,4.68-1.05.74-1.13,2.82-1.73,4.25-.93,2.19-1.93,4.36-2.9,6.53-1.58-1.69-3.16-3.37-5.16-5.5-5.34,1.37-9.25,4.6-10.81,12.05-4.65,22.28-10.34,44.35-15.69,66.48-.38,1.57-.98,3.23-1.96,4.45-.47.59-2.3.66-3.13.23-.82-.43-1.85-2.08-1.6-2.7,3.67-8.82-3.4-15.36-4.68-23.08-.52-3.14-1.06-6.52-.46-9.56,2.05-10.38,4.61-20.65,7.13-31.67-2.64,1.25-4.48,2.47-6.49,2.95-1.33.32-2.91-.44-4.37-.71.61-1.5.8-3.56,1.91-4.38,2.52-1.85,5.65-2.86,8.23-4.64,1.46-1.01,2.94-2.74,3.34-4.4,3.67-15.18,7.14-30.42,10.55-45.66.28-1.25.25-3.38-.49-3.92-7.19-5.26-6.64-12.76-5.58-20.01,1.29-8.85,5.75-16.15,12.74-21.96,1.49-1.24,2.51-3.75,2.68-5.76.38-4.63.06-9.32.1-13.99.06-6.31,8.4-12.36,14.14-9.91,1.43.61,2.72,3.24,2.82,5.01.32,5.64-.1,11.33.1,16.98.04,1.25,1.25,3.34,2.24,3.55,14.29,3.04,16.89,17.14,12.52,29.2-1.27,3.51-1.12,6.14.37,9.3,3.96,8.4,7.68,16.91,11.69,25.79,3.45-1.79,6.54-3.75,9.9-4.97,1.4-.51,3.37.54,5.09.89-.69,1.47-1,3.52-2.15,4.3-3,2.03-6.37,3.51-10.23,5.55,1.97,4.46,3.89,8.8,5.81,13.14.2.46.42.91.67,1.34,5.61,9.28,7.11,18.89,3.53,29.45-1.04,3.06.48,6.93.58,10.44.06,2.23.45,5.81-.65,6.45-3.48,2-3.77-2.08-5.45-3.83-12.5-12.99-14.69-31.26-23.99-46.34ZM632.85,715.16c7.67-32.48,14.92-63.84,22.6-95.09,1.23-5.02.16-7.44-4.79-8.69-.37.98-.89,1.99-1.14,3.07-6.44,27.63-12.69,55.31-19.37,82.89-1.47,6.09-.56,11.3,2.71,17.82ZM702.95,675.64c1.92-7.61,4.33-13.77.52-20.59-3.22-5.78-5.44-12.11-8.14-18.18-5.26-11.79-10.56-23.56-15.9-35.47q-6.48,6.52-3.17,14.09c4.73,10.81,9.41,21.63,14.19,32.42,3.95,8.92,8.02,17.8,12.51,27.73ZM680.86,578.05c-.96-1.76-2.06-6.18-4.9-8.39-3.82-2.98-8.28-.02-11.07,2.85-4.42,4.53-8.99,9.42-11.63,15.03-1.91,4.07-1.74,9.74-.8,14.36,1.12,5.52,6.48,7.38,11.4,4.51,9.89-5.78,15.97-14.22,17-28.36ZM678.14,635.93c-3.43-7.82-6.67-15.22-10.31-23.52-2.14,1.67-4.86,2.69-5.3,4.32-2.7,10.01-4.89,20.15-7.31,30.53,7.57-2.46,7.42-2.48,8.33-9.25.18-1.37,1.9-2.53,2.91-3.79,1.11,1.12,2.31,2.16,3.27,3.39.43.55.39,1.47.63,2.56,2.65-1.45,4.95-2.7,7.77-4.24ZM659.66,560.1c4.85-.95,6.08-6.94,3.89-17.57-4.86.96-4.46.05-3.89,17.57ZM660.94,567.15c-12.93,4.42-21.19,22.97-16.28,31.63.25-12.98,5.37-23.07,16.28-31.63Z"/><path class="b" d="M454.56,138.9c0,13.66-.27,27.32.09,40.97.25,9.29-3.66,15.94-10.99,21.06-10.33,7.2-21.98,10.94-34.27,12.77-22.49,3.35-44.79,2.79-66.61-4.34-4.09-1.33-8.05-3.14-11.9-5.07-11.89-5.97-18.08-14.84-17.63-29.02.81-24.96.56-49.96.2-74.94-.16-11.47,4.75-19.34,14.14-25.08,10.87-6.64,22.9-9.67,35.34-11.37,23.26-3.19,46.18-2.1,68.27,6.54,4.74,1.85,9.23,4.6,13.4,7.54,6.95,4.9,10.4,11.57,10.11,20.47-.44,13.48-.12,26.98-.12,40.47-.01,0-.02,0-.04,0ZM387.55,122.46c4.68-.5,13-.99,21.17-2.38,12.21-2.08,23.99-5.63,33.62-14,8.32-7.23,8.47-15.6-.35-22.2-5.36-4.01-11.57-7.36-17.91-9.49-23.28-7.79-47.06-7.77-70.88-2.59-10.31,2.24-20.18,5.82-28.02,13.29-6.96,6.62-7.08,13.96.18,20.2,4.22,3.62,9.18,6.65,14.26,8.93,14.04,6.3,29.06,7.95,47.92,8.24ZM448.54,138.31c-37.46,25.37-87.29,25.34-128.26.38-2.06,17.69-.43,22.42,12.8,30.54,2.11,1.3,4.36,2.62,6.73,3.2,10.76,2.62,21.48,6.05,32.42,7.2,20.92,2.2,41.53.03,60.89-9.17,10.29-4.89,17.12-12.01,15.46-24.52-.3-2.28-.04-4.64-.04-7.63ZM448.29,168.09c-19.54,14.98-41.61,18.06-64.34,18.2-22.79.14-44.69-3.48-63.42-18.09-3.63,14.56-.25,22.85,12.12,30,2.01,1.16,4.11,2.21,6.25,3.08,22.4,9.06,45.61,9.92,69.16,6.43,11.27-1.67,22.27-4.66,31.45-11.67,3.61-2.76,7.21-6.89,8.43-11.09,1.45-5.01.34-10.76.34-16.86ZM320.11,109.53c-2.16,18.3,1.94,25.67,17.92,32.84,1.97.88,3.94,1.98,6.02,2.37,11.4,2.17,22.77,5.2,34.27,5.96,19.1,1.26,38.04-1,55.36-9.96,15.41-7.98,16.2-14.08,14.07-30.54-28.38,24.73-100.95,23.96-127.65-.66Z"/><path class="b" d="M154.72,620.05c1.37,4.84,2.41,9.18,3.86,13.37.54,1.55,1.79,3.08,3.11,4.08,1.97,1.49,4.24,2.64,6.49,3.69,3.13,1.45,4.55,3.69,4.09,7.14-.13.98-.01,2-.01,2.99,0,18.7-.1,18.87-17.8,26.23,1.35,2.62,2.72,5.22,4.04,7.83,2.67,5.29,2.29,8.88-2.48,12.1-7.29,4.92-14.93,9.36-22.59,13.7-1.02.58-3.51-.1-4.48-1.06-1.99-1.94-3.41-4.47-5.28-7.05-4.58,2.77-9.18,5.31-13.51,8.25-2.85,1.93-5.33,1.92-8.24.31-2.9-1.61-5.86-3.34-9.02-4.19-6.67-1.8-9.6-6.09-9.29-12.67.2-4.35-1.82-7.16-5.1-9.53-1.61-1.16-3.23-2.45-4.46-3.98-1.94-2.43-3.78-2.36-6.43-1.04-6.93,3.45-7,3.32-11.24-3.31-2.87-4.48-5.57-9.08-8.65-13.42-2.46-3.47-2.22-6.14.91-9.06,1.64-1.53,4.07-4.48,3.55-5.69-1.93-4.55-1.02-10.95-6.54-13.33-8.55-3.68-10.83-9.63-10.73-18.8.09-8.98,2.19-14.93,10.89-17.94,1.97-.68,3.7-2.04,5.72-3.18-1.8-3.86-3.39-7.49-5.17-11.02-1.45-2.9-.87-5.04,1.82-6.79,7.4-4.77,14.82-9.53,22.14-14.42,3.5-2.34,6.13-1.62,8.53,1.56,1.39,1.85,2.95,3.58,3.76,4.55,4.7-2.84,9.08-5.43,13.4-8.11,5.22-3.24,9.93-.14,14.79,1.1.64.16,1.22.59,1.86.7,8.02,1.34,11,6.55,10.55,14.1-.27,4.53,1.53,7.53,5.44,9.62,1.45.77,2.84,1.83,3.92,3.06,2.86,3.25,5.75,4.37,9.92,1.95,2.68-1.55,5.48-.73,7.29,2.21,3.13,5.1,6.38,10.13,9.47,15.26,3.33,5.53-.86,8.14-4.53,10.78ZM52.14,582.76c1.2,2.36,1.97,4.43,3.2,6.17,3.65,5.16,5.05,10.14.65,15.74-1.73,2.2-1.95,6.64-3.87,7.37-2.5.94-6.01-.81-9.1-1.37-.44-.08-.92.04-1.63.08,0,2.74.32,5.44-.07,8.03-.77,5.05,1.18,8.22,5.78,10.1,4.84,1.98,7.66,5.51,8.49,10.78.36,2.26,1.11,4.59,2.23,6.59,2.39,4.26,1.25,7.37-2.05,10.57-1.19,1.15-2.19,4.03-1.57,5.24,2.43,4.68,5.55,9.01,8.48,13.57,1.57-.68,2.89-1.03,3.96-1.75,3.86-2.61,6.9-2.03,9.86,1.63,1.86,2.3,4.21,4.37,6.71,5.94,4.16,2.61,6.43,5.87,6.47,10.95.02,2.5.4,6.03,2.02,7.27,3.4,2.61,7.73,4.02,11.75,5.96,1-4.19.8-8.57,2.9-10.63,2.01-1.97,6.39-1.53,9.74-2.15.16-.03.33-.07.48-.13,3.91-1.42,6.73.09,9.04,3.24,2.13,2.92,4.36,5.76,6.72,8.85,3.52-2.11,6.7-4.02,10.02-6.02-2.35-4.23-4.33-8.07-6.58-11.75-1.76-2.87-1.84-5.36,0-8.31,1.99-3.19,2.58-8.19,5.28-9.71,2.64-1.48,7.2.43,10.87.85,1.56-8.27,1.94-16.01-8.49-19.34-1.65-.53-3.2-2.83-3.87-4.66-1.71-4.66-3.26-9.44-4.15-14.31-.4-2.21.59-4.87,1.54-7.06.59-1.36,2.3-2.24,3.8-3.61-3.51-5.56-6.9-10.95-10.26-16.27q-9.08,4.64-15.96-1.61c-1.48-1.34-2.87-2.87-4.55-3.88-4.66-2.78-6.03-7.12-6.57-12.14-.9-8.29-4.64-11.88-13.5-13.27-.18.62-.41,1.24-.53,1.88q-2.07,11.23-13.25,11.77c-.67.03-1.43.31-1.98.07-2.26-.97-4.89-1.65-6.58-3.27-2.42-2.34-4.14-5.4-6.25-8.29-3.27,2.45-6.05,4.53-9.2,6.89ZM136.23,602.06c3.18,5.1,6.38,10.25,9.8,15.74,2.78-1.95,5.27-3.7,7.97-5.6-1.8-2.95-3.32-5.48-4.89-7.98q-4.61-7.32-12.13-3.03c-.26.15-.42.47-.76.87ZM145.17,642.06c8.83-3.78,9.81-8.68,3.52-17.28-2.44,1.59-4.89,3.18-7.22,4.69,1.31,4.48,2.5,8.52,3.69,12.59ZM67.01,572.21c5.49,9.96,7.28,10.79,14.75,6.64-2.68-3.56-5.32-7.07-8.06-10.71-2.55,1.55-4.63,2.82-6.69,4.07ZM154.39,690.74c-1.8-3.68-3.45-7.04-5.33-10.87-2.62,1.79-4.87,3.34-7.49,5.13,2.01,3.65,3.89,7.05,5.89,10.69,2.55-1.82,4.68-3.33,6.94-4.94ZM130.27,596.67c-6.71-7.99-8.47-8.29-15.91-2.73,6.82,8.31,8.54,8.61,15.91,2.73ZM165.58,651.88c-7.51,3.68-8.8,7.17-6.3,16.08,7.36-3.53,7.55-4.01,6.3-16.08ZM116.89,575.09c-8.28,2.57-9.47,5.12-6.01,12.98q7.59-3.65,6.01-12.98ZM95.5,568.46c10.04,6.03,10.7,6.06,16.29.87-5.38-.99-10.19-5.55-16.29-.87ZM150.47,646.91c4.76,5.32,8.11.96,11.98-1.12-4.75-5.12-8.18-1.43-11.98,1.12Z"/><path class="b" d="M205.94,517.2c0-7.38-.21-13.67.14-19.93.09-1.66,1.87-3.22,2.88-4.82,1.03,1.6,2.89,3.17,2.95,4.81.28,6.96-.02,13.95-.03,20.93,0,3.33-1.59,4.85-4.86,4.86-11.13.05-22.27.26-33.39.08-1.38-.02-2.74-1.99-4.1-3.06,1.5-.96,2.97-2.7,4.49-2.74,10.28-.24,20.57-.13,31.92-.13Z"/><path class="b" d="M152.68,486.18c0,6.69.21,12.66-.13,18.59-.1,1.74-1.74,3.39-2.67,5.08-1.13-1.7-3.12-3.34-3.23-5.11-.4-6.3-.08-12.65-.21-18.97-.08-3.75,1.37-5.48,5.28-5.45,10.82.08,21.65-.16,32.47.04,1.42.03,2.8,1.84,4.2,2.83-1.44,1-2.85,2.82-4.32,2.86-10.14.25-20.29.13-31.39.13Z"/><path class="b" d="M617,486.31c-8.04,0-15.33,0-22.63,0-2.39,0-5.3.03-4.76-3.28.19-1.16,3.09-2.61,4.78-2.65,7.98-.2,15.98.14,23.97.09,3.95-.02,5.44,1.65,4.91,5.51-.82,5.93-1.44,11.88-2.3,17.8-.33,2.25-.74,5.32-3.97,4.27-1.17-.38-2.19-3.4-2.08-5.14.34-5.28,1.28-10.51,2.09-16.6Z"/><path class="b" d="M556.19,520.84c7.9,0,15.34-.06,22.77.04,2.35.03,5.77-.45,5.23,3.29-.17,1.17-3.38,2.68-5.22,2.7-8.13.11-16.26-.35-24.4-.42-3.65-.03-5.19-1.39-4.62-5.14.88-5.74,1.36-11.54,2.47-17.23.28-1.45,2.27-2.58,3.48-3.85.84,1.52,2.47,3.09,2.37,4.55-.33,5.07-1.26,10.09-2.08,16.05Z"/><path class="b" d="M596.57,526.87c-.88-.98-2.23-1.98-2.91-3.33-6.08-12.14-12.13-24.31-17.92-36.59-.69-1.46.25-3.68.44-5.55,1.69.89,4.23,1.35,4.95,2.75,6.3,12.22,12.28,24.61,18.34,36.96,1.33,2.71,1.12,4.81-2.9,5.77Z"/><path class="b" d="M676.39,584.89c-.63,5.98-3.86,11.51-10.28,14.73-5.37,2.69-9.51,0-9.87-6.07-.41-6.84,3.32-13.79,8.9-16.53,6.07-2.99,11.27.13,11.26,7.86ZM669.8,582.41c-5.78,1.53-8.41,6.01-6.7,11.42,5.18-2.51,7.37-6.24,6.7-11.42Z"/><path class="b" d="M68.26,629.62c-.15-20.21,15.56-29.49,32.39-20.14,16.53,9.18,27.27,30.84,23.82,48.03-2.48,12.36-12.29,18.76-24.51,15.13-17.01-5.05-25.53-18.14-30.55-34.14-.45-1.42-.74-2.91-.91-4.39-.21-1.82-.2-3.66-.24-4.48ZM117.66,659.21c6.83-14.41-9.24-45.85-28.83-46.54-5.99,17.37,11.75,46.29,28.83,46.54ZM82.07,613.43c-5.07,1.87-6.72,5.79-7.49,10.14-2.91,16.38,10.56,38.32,26.48,43.12,3.99,1.2,7.98,1.33,11.99-1.26-21.66-9.81-32.31-27.68-30.99-52Z"/></svg>