<?xml version="1.0" encoding="UTF-8"?><svg id="a" xmlns="http://www.w3.org/2000/svg" viewBox="0 0 806.28 819.5"><defs><style>.b{stroke-width:0px;}</style></defs><path class="b" d="M191.84,386.2c-6.56-12.49-12.83-24.4-19.09-36.32-2.85-5.44-2.71-6.48,2.65-9.52,12.58-7.15,25.23-14.2,37.98-21.05,1.62-.87,4.37-1.09,5.97-.32,13.34,6.42,26.55,13.09,39.73,19.82,1.72.88,3.2,2.4,4.53,3.86,17.41,19.07,34.71,38.25,52.22,57.23,3.51,3.8,4.07,6.83,1.66,11.73-7.86,15.96-15.03,32.25-22.44,48.43-.47,1.02-.74,2.12-1.35,3.88,18.81,2.27,37.23,4.49,56.31,6.79,0-2.28,0-4.07,0-5.86,0-18.83-.25-37.66.03-56.49.71-47.47,19.97-85.8,57.22-115.22,1.59-1.26,2.8-4.02,2.83-6.1.23-19.49.4-39,.06-58.49-.1-5.99,1.92-9.32,7.15-12.19,56.73-31.15,113.34-62.52,169.97-93.85,3.76-2.08,7.46-4.27,11.4-6.52-.62-1.36-1.01-2.43-1.56-3.4-13.67-24.19-27.27-48.42-41.14-72.49-2.35-4.08-1.64-6.14,2.22-8.31,18.29-10.25,36.44-20.76,54.83-30.84,2.21-1.21,5.93-1.31,8.29-.34,21.53,8.86,42.94,18.02,64.31,27.25,2.2.95,4.21,2.64,5.91,4.38,32,32.56,63.91,65.23,95.97,97.73,2.97,3.01,2.63,5.41,1.07,8.8-20.35,44.27-40.6,88.59-60.86,132.9-.96,2.09-1.85,4.21-2.75,6.26,7.62,4.99,15.22,9.45,22.25,14.67,24.32,18.05,43.87,40.06,53.01,69.49,3.31,10.66,4.98,22.09,5.6,33.27.94,16.95-.07,33.99.43,50.98.95,32.23-10.82,59.53-31.66,83.3-22.58,25.74-51.1,42.86-82.56,55.47-47.94,19.21-97.84,24.94-148.98,20.7-28.17-2.34-56.26-5.71-84.92-8.67,0,1.77.01,3.73,0,5.69-.14,18.49.95,37.09-.67,55.45-3.26,36.92-20.66,67.37-46.76,93.03-27.46,26.99-60.73,44.09-97.21,55.11-35.05,10.58-70.93,15.21-107.55,12.09-50.77-4.33-98.4-18.26-140.48-47.9-28.62-20.16-50.85-45.58-60.43-80.09-2.64-9.52-3.98-19.59-4.45-29.48-.77-16.3-.01-32.66-.51-48.98-.97-32.21,10.85-59.48,31.5-83.39,13.99-16.2,30.79-28.94,49.88-38.57,2.79-1.41,3.77-2.95,3.71-6.06-.21-10.99.09-22-.2-32.99-.11-4.09,1.41-6.3,4.88-8.21,31.64-17.4,63.2-34.94,94.77-52.46,2.31-1.28,4.57-2.66,7.24-4.21ZM129.1,530.74c-10.69-5.73-21.29-11.95-32.36-17.16-7.76-3.66-13.88-7.5-11.77-17.42.02-.09-.17-.23-.48-.63-.78.29-1.72.51-2.53.96-24.81,13.72-45.65,31.82-60.18,56.38-15.38,26-20.17,53.68-10.63,82.96,9.07,27.84,26.32,50.02,49.21,67.68,56.85,43.84,121.78,59.95,192.48,53.19,48.64-4.65,92.63-22.6,131.44-52.27,45.13-34.5,68.06-80.2,67.67-137.45-.37-53.99-.13-107.99-.21-161.99-.02-13.24.9-26.38,5.7-38.81,2.72-7.02,6.66-13.57,10.14-20.52-17.03-7.39-34.18-15.04-51.53-22.23-4.62-1.92-6.36-4.43-5.95-9.31.4-4.71.09-9.48.09-14.99-1.44.96-2.13,1.33-2.72,1.82-33.5,28.1-50.94,64.11-51.22,107.74-.46,69.83-.05,139.66-.24,209.49-.02,7.25-.83,14.7-2.64,21.7-6.49,25.03-23.23,41.91-45.37,53.69-39.28,20.91-80.8,25.72-123.96,15.35-29.47-7.07-56.18-19.76-77.94-41.4-15.82-15.74-25.3-34.58-25.85-57.23-.6-24.89,9.56-45.26,27.4-61.96,6.65-6.23,14.1-11.6,21.46-17.58ZM350.56,583.59c-2.95-.43-4.9-.77-6.87-.98-16.38-1.81-32.76-3.61-49.14-5.4-28.66-3.13-57.32-6.06-86.22-3.62-26.24,2.22-51.11,8.84-73.6,22.92-16.41,10.28-29.69,23.53-38,41.34-1.33,2.84-1.36,5.08.3,7.84,6.21,10.26,14.08,19.05,23.57,26.26,38.18,29.01,81.35,40.29,128.71,34.36,24.69-3.09,47.89-11.27,68.29-26.13,16.55-12.06,28.39-27.74,31.1-48.18,2.08-15.75,1.34-31.87,1.87-48.39ZM722.58,284.28c-.68.75-1.11,1.06-1.3,1.47-7.34,16.02-14.7,32.03-21.86,48.14-.53,1.19.05,3.41.9,4.57,3.45,4.68,7.51,8.94,10.81,13.72,10.31,14.95,15.86,31.32,14.43,49.77-1.76,22.59-11.59,41.21-28.17,56.14-31.14,28.05-68.89,40.01-109.8,43.46-27.27,2.3-54.13-2.8-81.1-5.53-16.02-1.62-31.97-3.91-48.3-5.93v44.34c1.56.32,2.98.73,4.43.89,28.11,3.18,56.17,6.84,84.33,9.38,47.64,4.3,94.04-1.73,138.69-19.24,35.45-13.9,67.02-33.63,90.31-64.45,21.84-28.89,30.27-60.98,18.77-96.35-10.58-32.53-33.06-55.67-61.09-73.99-3.57-2.33-7.39-4.28-11.07-6.39ZM457.95,483.49c2.54.4,4.64.8,6.76,1.06,23.11,2.82,46.28,5.29,69.33,8.51,29.81,4.16,59.35,4.2,88.67-3.44,29.02-7.56,55.66-19.81,76.19-42.19,13.51-14.74,13.65-12.44,2.7-30.58-13.17-21.82-33.72-34.95-56.89-44.27-1.35-.54-3.53-.03-4.92.73-6.41,3.52-12.75,7.19-18.97,11.04-2.85,1.77-5.29,1.81-8.31.32-12.67-6.24-25.78-11.68-38.08-18.56-8.64-4.83-17-5.69-26.19-3.29-2.89.75-5.86,1.18-8.79,1.8-26.82,5.69-50.22,17.53-67.79,39.06-8.03,9.83-14.83,20.47-13.77,34.23.43,5.63.06,11.32.06,16.98,0,9.46,0,18.92,0,28.59ZM6.59,644c-1.27,25.39,2.49,49.18,15.35,71.2,15.84,27.12,38.38,47.21,65.5,62.17,52.35,28.87,108.51,40.07,167.99,34.43,35.3-3.35,68.99-12.59,100.53-28.94,33.37-17.3,61.12-40.75,79.46-74.22,14.23-25.97,20.82-62.04,15.89-87.77-.42.74-.84,1.26-1.02,1.86-9.76,32.85-28.87,59.63-55.25,80.79-57.97,46.49-124.19,66.4-198.41,59.31-42.78-4.09-82.68-16.61-119.14-39.54-30.69-19.3-55.73-43.69-69.6-78.02-.16-.39-.66-.65-1.32-1.27ZM799.53,431.49c-.95,2.15-1.53,3.86-2.42,5.4-5.81,10.05-10.67,20.86-17.73,29.95-23.96,30.88-56.13,50.58-92.02,64.69-57.95,22.77-117.78,24.19-178.5,15.61-16.75-2.36-33.56-4.29-50.56-6.45v50.4c28.28,2.94,56.23,6.13,84.23,8.68,33.88,3.08,67.51,1.17,100.81-6.18,37.03-8.17,71.59-21.99,101.85-45.12,38.2-29.2,59.84-66.55,54.35-116.99ZM731.46,172.29v53.49c.51.38,1.02.75,1.53,1.13,4.55-3.81,10.95-6.71,13.34-11.59,12.45-25.36,23.85-51.23,35.74-76.87,1.26-2.72.92-4.33-1.2-6.48-29.68-30.14-59.25-60.4-88.86-90.61-6.06-6.19-6.11-6.18-13.73-1.91-16.24,9.1-32.46,18.22-48.85,27.42.63,1.29,1.05,2.35,1.63,3.31,13.8,23.15,27.54,46.34,41.51,69.4,2.36,3.89,2.18,6.1-1.98,8.28-6.48,3.39-12.65,7.36-19.13,10.76-3.17,1.66-4.47,3.57-4.41,7.32.26,16.32.15,32.64.19,48.97,0,1.38.22,2.76.39,4.85,28.07-15.89,55.5-31.42,83.83-47.46ZM224.04,544.37c10.71-6.23,20.22-11.94,29.92-17.31,3.67-2.03,6.19-4.62,7.93-8.45,16.63-36.64,33.4-73.21,49.96-109.88.56-1.25-.18-3.8-1.2-4.95-15.75-17.65-31.66-35.15-47.5-52.71-1.66-1.84-3.16-3.83-4.6-5.59-13.58,7.45-26.23,14.39-39.17,21.49,1,1.68,1.73,2.97,2.52,4.21,8.15,12.96,16.31,25.92,24.46,38.88,3.33,5.29,3.24,5.57-2.26,8.66-33.21,18.67-66.39,37.38-99.64,55.97-2.8,1.57-4.05,3.28-4.01,6.61.14,13.33-.03,26.65-.05,39.98,0,1.39.22,2.78.37,4.58,1.44-.72,2.34-1.11,3.19-1.6,16.45-9.44,32.86-18.94,49.34-28.33,16.62-9.47,33.28-18.88,50.02-28.15,1.48-.82,3.63-.42,5.47-.59.02,1.69.51,3.54,0,5.05-6.48,19.21-13.11,38.36-19.7,57.53-1.54,4.48-3.09,8.95-5.03,14.59ZM91.34,634.24c15.36-29.57,39.76-46.43,69.17-57.02,20.4-7.35,41.63-10.13,63.2-10.56,33.24-.66,66.08,3.98,99.01,7.48,8.9.95,17.79,1.91,27.05,2.91v-49.64c-6.61-.77-13.04-1.52-19.47-2.26-19.01-2.17-38.03-4.25-57.02-6.55-3.61-.44-5.3.73-6.67,4.04-1.08,2.62-2.82,5.57-5.12,6.98-13.33,8.17-26.86,16.01-40.46,23.72-1.58.9-4.39,1.12-5.95.33-12.6-6.39-25.03-13.12-37.55-19.69-2.58-1.35-3.09-3.25-2.11-5.79,1.23-3.18,2.46-6.36,3.94-10.21-2.31.52-3.98.66-5.45,1.26-13.12,5.38-26.82,9.73-39.16,16.54-17.56,9.7-32.04,23.27-41.09,41.72-8.91,18.16-9,36.75-2.33,56.73ZM729.98,175.32c-28.49,16.11-56.02,31.68-84.65,47.87v-60.95c-10.2,5.84-19.47,11.31-28.92,16.46-3.16,1.72-4.39,3.65-4.37,7.35.15,27,.04,54,.02,81,0,1.06.09,2.12.14,3.24,6.04-1.36,7.94-4.57,7.8-10.4-.4-15.99.63-32.04-.33-47.98-.59-9.84,1.97-16.11,11.39-19.36,2.56-.88,4.87-2.47,7.3-3.74.25.48.5.96.75,1.44-4.52,2.59-8.97,5.32-13.59,7.71-2.69,1.39-3.71,3.14-3.7,6.23.09,19-.04,38-.07,57,0,1.08.26,2.16.48,3.9,2.33-1.27,4.19-2.25,6.02-3.28,13.91-7.85,27.78-15.77,41.76-23.5,1.5-.83,3.59-.58,5.41-.83,0,1.84.51,3.86-.07,5.49-2.1,5.85-4.56,11.56-7.38,18.55,9.53-5.38,17.91-10.06,26.2-14.88.82-.48,1.63-1.8,1.64-2.74.11-10.92.07-21.84.07-33.48-2.26,1.2-3.86,1.98-5.4,2.86-16.78,9.53-33.44,19.32-50.41,28.5-6.26,3.39-11.37,6.66-9.83,14.83.05.28-.38.65-1.29,2.1,0-3.84-.4-6.55.13-9.06.41-1.94,1.53-4.41,3.1-5.32,20.46-11.82,41.06-23.4,61.63-35.02,1.05-.59,2.21-.99,3.96-1.75,0,12.84.12,24.98-.15,37.11-.03,1.47-1.87,3.37-3.36,4.25-8.16,4.83-16.53,9.32-24.68,14.16-1.71,1.01-3.38,2.8-4.12,4.62-7.88,19.23-15.58,38.53-23.3,57.82-.47,1.16-.71,2.41-1.29,4.43,7.43-4.07,14.04-7.85,20.81-11.32,2.57-1.32,3.56-2.87,3.5-5.8-.19-9,.13-18-.16-26.99-.12-3.69,1.19-5.61,4.34-7.35,11.93-6.62,23.64-13.64,35.56-20.27,2.87-1.6,3.89-3.36,3.85-6.65-.2-16.16-.14-32.33-.13-48.5,0-1.56.3-3.13.45-4.69,1.11.6,1.38,1.07,1.38,1.53,0,18.17.07,36.33-.19,54.49-.02,1.6-1.82,3.75-3.38,4.67-12.02,7.14-24.13,14.12-36.32,20.96-2.64,1.48-3.79,3.12-3.73,6.22.19,8.83-.12,17.67.13,26.49.1,3.62-.95,5.71-4.27,7.39-6.97,3.53-13.72,7.51-20.52,11.38-1.26.72-2.84,1.56-3.36,2.75-2.62,5.96-4.94,12.06-7.79,19.16,10.92-6.07,20.72-11.52,31.26-17.37v16.99c5.53-1.47,8.41-3.94,7.72-9.9-.6-5.21-.13-10.55-.13-15.83.57,0,1.14-.02,1.72-.02v20.43c5.9-1.17,8.09-3.58,7.91-9.08-.46-13.98-.2-27.99-.19-41.99,0-1.6.29-3.19.45-4.79.53.05,1.06.09,1.59.14v50.72c9.02-3.41,16.15-13.86,16.14-22.91-.02-10.83.16-21.67-.15-32.5-.12-4.16,1.04-6.7,4.8-8.73,6.29-3.39,12.36-7.23,18.34-11.15,1.83-1.2,3.57-3.04,4.5-4.99,5.81-12.15,11.39-24.41,17.01-36.66.41-.89.54-1.91.95-3.41-4.53,2.47-8.42,4.6-13,7.1v-54.12ZM419.9,222.11c20.17,8.96,39.27,17.54,58.5,25.81,1.67.72,4.54-.01,6.31-1.02,55.08-31.35,110.1-62.81,165.12-94.26,4.73-2.7,9.43-5.47,14.61-8.48-1.67-.73-2.7-1.22-3.76-1.64-17.03-6.65-34.12-13.14-51.05-20.03-4.22-1.71-7.38-1.7-11.5.6-44.88,25.04-89.92,49.81-134.88,74.71-14.24,7.88-28.4,15.91-43.36,24.3ZM601.12,240.52v35.97q9.01-3.23,9.01-11.86c0-25.5.02-51,.02-76.49,0-1.7,0-3.4,0-5.43q-7.73,3.52-7.69,10.95c.03,9-.49,18.04.22,26.98.54,6.88-1.82,10.67-8.02,13.34-5.66,2.44-10.86,5.91-16.27,8.93-.25-.41-.5-.81-.75-1.22,1.09-.75,2.13-1.59,3.28-2.25,5.21-2.96,10.32-6.12,15.71-8.71,3.39-1.63,4.4-3.77,4.29-7.39-.28-9.16-.17-18.33-.21-27.5-.01-2.39,0-4.77,0-7.55-1.41.5-1.89.6-2.3.83-36.8,21.12-73.62,42.21-110.32,63.52-1.65.96-3,3.89-3.04,5.92-.47,26.33-.67,52.66-.94,78.99-.02,1.59,0,3.19,0,4.83.83,0,1.21.12,1.45-.02,37.11-20.91,74.21-41.83,111.26-62.82.99-.56,2.15-1.9,2.17-2.89.16-10.59.1-21.19.1-32.73-7.37,4.1-13.9,7.74-20.43,11.37-.3-.54-.61-1.07-.91-1.61,7.38-4.16,14.76-8.32,23.36-13.18ZM556.49,351.08c19.46,9.38,38.52,18.57,57.61,27.76,17.68-44.12,35.11-87.62,52.92-132.08-28.67,16.31-56.41,32.07-84.11,47.9-1.08.62-2.16,1.68-2.66,2.8-7.86,17.59-15.62,35.22-23.76,53.62ZM416.67,227.47c-.17.95-.38,1.56-.38,2.16-.05,28.14-.15,56.27.02,84.41,0,1.51,1.92,3.69,3.47,4.39,13.94,6.25,28,12.24,42.03,18.31,5.28,2.28,10.56,4.55,16.07,6.91.11-1.23.21-1.88.22-2.54.19-27.64.32-55.27.62-82.9.03-2.87-1.04-4.09-3.47-5.16-18.41-8.07-36.76-16.26-55.14-24.4-1.01-.45-2.11-.72-3.45-1.17ZM238.85,414.62c-14.08-7.74-27.26-15.09-40.59-22.17-1.36-.72-3.89-.45-5.34.34-27.69,15.18-55.31,30.5-82.93,45.8-5.03,2.79-10.01,5.66-15.44,8.75.95.76,1.39,1.22,1.92,1.51,12.96,7.13,25.89,14.32,38.96,21.25,1.34.71,3.82.39,5.26-.39,12.1-6.62,24.08-13.46,36.11-20.22,20.4-11.47,40.81-22.94,62.04-34.87ZM458.15,411.64c22.22-34.4,54.76-49.75,91.61-55.28.6-3.37.61-5.96,1.54-8.17,4.01-9.48,8.31-18.85,12.49-28.27,2.73-6.16,5.43-12.32,8.5-19.29-2.01.99-3.18,1.5-4.29,2.13-26.33,14.9-52.7,29.74-78.94,44.79-4.79,2.74-9.15,5.63-14.33,1.05-15.4,18.37-17.41,39.76-16.58,63.04ZM564.16,35.13c1.12.87,1.46,1.26,1.88,1.44,18.7,8.32,37.37,16.7,56.17,24.78,1.68.72,4.52.05,6.28-.93,15.54-8.71,30.96-17.63,46.4-26.51,1.23-.71,2.39-1.52,3.99-2.55-20.26-8.64-39.95-17.06-59.7-25.36-1.16-.49-3.05-.34-4.16.29-16.82,9.44-33.57,19-50.86,28.84ZM663.7,137.26c-13.74-23.17-26.68-45.07-39.79-66.88-.93-1.54-2.94-2.64-4.68-3.44-7.99-3.7-16.07-7.23-24.11-10.82-10.09-4.51-20.17-9.02-31.15-13.94,1.11,2.09,1.69,3.23,2.32,4.34,11.28,19.98,22.72,39.88,33.77,59.99,2.89,5.25,6.55,8.58,12.22,10.68,16.78,6.23,33.36,12.98,51.42,20.07ZM350,521.32c0-14.37.07-28.17-.16-41.96-.02-.95-2.24-2.52-3.59-2.7-17.32-2.29-34.68-4.26-51.99-6.63-3.12-.43-4.06.77-5.1,3.14-4.69,10.65-9.5,21.25-14.26,31.87-1.05,2.34-2.04,4.7-3.25,7.48,26.34,2.96,51.94,5.83,78.33,8.8ZM649.55,367.62c28.06,12.4,50.76,29.44,63.59,57.61,13.65-27.58,4.23-62.19-18.06-82.39-14.91,8.11-29.78,16.21-45.53,24.78ZM216.47,547.77c8.15-23.96,16.05-47.17,24-70.55-.87,0-1.22-.11-1.44.02-15.08,8.48-30.16,16.95-45.21,25.5-1.09.62-2.28,1.61-2.72,2.71-3.16,7.82-6.14,15.71-9.32,23.95,11.58,6.13,22.84,12.09,34.69,18.37ZM133.68,526.19c.31-.97.57-1.41.58-1.85.04-14.99.16-29.97-.07-44.95-.02-1.61-1.73-3.8-3.26-4.69-7.75-4.53-15.69-8.72-23.56-13.03-5.19-2.84-10.4-5.66-16.16-8.8,0,16.71-.06,32.65.12,48.59.01,1.18,1.56,2.76,2.79,3.45,7.54,4.23,15.18,8.27,22.8,12.35,5.52,2.96,11.06,5.89,16.76,8.93ZM252.73,341.81c-11.88-5.81-23-11.34-34.25-16.59-1.29-.6-3.54.02-4.99.77-7.08,3.66-14.04,7.53-21.03,11.37-4.12,2.27-8.2,4.62-13.02,7.35,11.94,5.91,22.91,11.38,33.94,16.71,1.01.49,2.7.46,3.68-.07,11.64-6.28,23.21-12.69,35.65-19.54ZM180.66,351.89c2.62,4.97,4.98,8.44,6.38,12.26,5.81,15.87,16.7,26.48,32.19,32.93,5.8,2.42,11.11,5.99,17.72,9.62-8.39-13.39-16.04-25.62-23.75-37.81-.5-.78-1.34-1.48-2.18-1.9-9.62-4.83-19.27-9.6-30.36-15.1ZM621.57,376.66c12.99-7.41,24.81-14.11,36.56-20.94.95-.55,1.95-1.92,2-2.96.23-4.21.09-8.44.09-13.42-10.29,5.84-19.78,11.2-29.23,16.64-.8.46-1.55,1.32-1.91,2.17-2.41,5.76-4.72,11.57-7.52,18.51ZM699.38,316.22c.33.08.66.16.99.25,7.04-15.37,14.09-30.74,21.13-46.11-7.34,3.34-14,7.27-20.56,11.35-.8.5-1.48,1.86-1.49,2.83-.11,10.56-.07,21.12-.07,31.68Z"/><path class="b" d="M759.37,141.31c-31.41,17.88-62.82,35.76-94.22,53.64-.31-.54-.61-1.08-.92-1.62l94.28-53.57c.29.52.58,1.04.87,1.55Z"/><path class="b" d="M497.29,221.04c1.82-.98,4.77-2.16,7.24-4,4.27-3.16,7.85-2.49,11.69,1.48-7.73,4.41-15.31,8.85-23.01,13.05-2.78,1.52-7.37-1.57-7.23-4.75.14-3.32.58-6.63.93-9.94.58-5.56-1-8.34-5.27-9.19-4.83-.96-9.49,1.64-10.96,6.11-.15.46-.41.9-.67,1.48-2.88.39-5.79.77-8.69,1.16-1.21-7.66,5.66-13.84,16.26-14.87,5.76-.56,12.34-1,15.67,4.05,2.73,4.14,2.76,10.06,4.04,15.43Z"/><path class="b" d="M495.04,199.56c6.2-7.36,13.19-3.18,20.41-3.12-1.82-5.56-2.49-10.8,5.88-11.48,1,3.8,2.12,8.02,3.28,12.4,6.97.83,13.81,1.65,20.9,2.5-5.49,7.82-12.95,3.29-19.51,3.78.36,3.04,1.75,6.36.72,8.54-.99,2.11-4.47,3.05-7.41,4.85-.82-3.72-1.78-6.87-2.14-10.08-.39-3.43-2.12-4.78-5.37-5.13-5.43-.59-10.83-1.44-16.77-2.26Z"/><path class="b" d="M550.07,292.15c-3.83,2.12-7.27,4.02-11.01,6.09-1.54-3.15-2.89-5.91-4.36-8.92-6.66,3.71-13.16,7.06-19.33,10.94-1.64,1.03-3.01,3.6-3.23,5.61-.91,8.38-6.52,11.88-14,14.44,5.18-17.86,10.24-35.35,15.32-52.83.42-1.43,1.07-2.82,1.29-4.28,1.28-8.33,5.07-14.61,14.57-16.87,6.69,14.77,13.61,30.06,20.75,45.83ZM530.75,279.76c-2.47-5.68-4.66-10.72-7.31-16.84-2.33,8.59-4.34,16.01-6.62,24.42,5.12-2.78,9.27-5.04,13.93-7.58Z"/><path class="b" d="M565.9,224.36c0,19.39.03,38.13-.08,56.88,0,1.07-.89,2.52-1.81,3.12-2.59,1.71-5.4,3.08-8.85,4.98-.12-2.26-.27-3.81-.28-5.35-.07-14.95-.09-29.9-.16-44.85q-.05-10.51,11.18-14.78Z"/><path class="b" d="M424.55,265.09c-1.58-2.16-2.96-4.02-4.31-5.87,4.86-4.87,11.9-4.07,17.84,2.08,4.28,4.43,7.33,10.14,4.85,15.83-2.15,4.94-6.89,8.74-10.67,13.27,1.77.83,4.14,2.36,6.73,3.09,5.16,1.46,6.2,4.66,4.61,9.78-7.02-3.18-14-6.22-20.88-9.5-2.66-1.27-2.73-6.32-.12-8.37,3.01-2.36,6.23-4.45,9.39-6.62,4.48-3.07,5.8-6.55,3.9-10.45-1.91-3.93-5.94-5.16-11.34-3.24Z"/><path class="b" d="M471.99,315.51c-9.49-.69-9.17-8.94-12.88-14.85-3.02,4.51-6,10.24-11.91,3.57,9.3-8.01,7.63-16.82,1.91-25.98-.69-1.11-1.01-2.44-1.52-3.73q4.78.81,12.22,13.7c1.78-2.31,3.43-4.45,5.29-6.86,2.09.99,4.13,1.95,6.27,2.95-.22.68-.22,1.29-.52,1.55-7.61,6.43-7.77,13.58-2.43,21.56,1.53,2.29,2.29,5.1,3.58,8.08Z"/><path class="b" d="M180.97,437.44c-4.52,6.37-10.65,2.68-16.19,3.26.53,2.23.98,4.12,1.52,6.42-2.06,1.23-4.14,2.46-6.24,3.71-.43-.5-.79-.72-.8-.96-.37-8.5-4.89-12.17-13.26-11.69-1.76.1-3.56-.62-5.63-1.02,4.36-6.18,10.38-2.11,15.93-2.71-2.45-5.41.5-7.4,4.87-8.47.23.19.62.35.68.59q2.17,8.7,11.07,9.82c2.6.33,5.2.68,8.05,1.05Z"/><path class="b" d="M116.09,443.25c2.98-1.7,5.89-3.56,8.98-5.01,1.15-.54,3.06-.65,4.11-.05,8.35,4.7,16.57,9.62,24.88,14.51-3.1,4.22-6.19,4.19-10.17,1.52-4.94-3.31-10.2-6.18-15.5-8.89-1.42-.73-3.49-.28-5.26-.24-2.25.05-4.5.23-6.75.36-.1-.73-.2-1.46-.3-2.19Z"/><path class="b" d="M120.51,503.06c-1.37,1.3-2.42,2.29-3.73,3.54-1.8-.97-3.64-1.96-6.39-3.44,11.22-6.49,3.06-13.13.9-19.81q3.47.69,9.6,9.85c.87-1.37,1.67-2.63,2.5-3.93,2.25,1.22,3.95,2.15,5.52,3,0,4.08-6.55,4.97-4.04,9.89,1.71,3.35,3.11,6.87,4.79,10.64-6.23-.38-6.74-5.48-9.15-9.73Z"/><path class="b" d="M97.85,468.06c2.46,1.32,4.98,2.53,7.35,4,.86.53,1.89,1.66,1.91,2.53.14,8.88.09,17.75.09,26.85-4.43-.85-5.98-3.05-5.71-7.05.28-4.29.05-8.62.08-12.93.02-2.96.43-5.83-3.23-7.52-1.1-.51-1.11-3.38-1.61-5.17.38-.23.76-.47,1.14-.7Z"/></svg>