<?xml version="1.0" encoding="UTF-8"?><svg id="logo" role="img" aria-hidden="true" xmlns="http://www.w3.org/2000/svg" viewBox="0 0 334.09 113.55"><defs><style>.b{fill:none;stroke:#231f20;stroke-linecap:round;stroke-linejoin:round;stroke-width:2.2px;vector-effect:non-scaling-stroke;stroke-dasharray:1200;stroke-dashoffset:1200;animation:logo-write 1.9s cubic-bezier(.23,1,.32,1) forwards;}.b:nth-of-type(1){animation-delay:0s}.b:nth-of-type(2){animation-delay:.09s}.b:nth-of-type(3){animation-delay:.18s}.b:nth-of-type(4){animation-delay:.27s}.b:nth-of-type(5){animation-delay:.36s}.b:nth-of-type(6){animation-delay:.45s}.b:nth-of-type(7){animation-delay:.54s}.b:nth-of-type(8){animation-delay:.63s}.b:nth-of-type(9){animation-delay:.72s}.b:nth-of-type(10){animation-delay:.81s}.b:nth-of-type(11){animation-delay:.9s}.b:nth-of-type(12){animation-delay:.99s}.b:nth-of-type(13){animation-delay:1.08s}.b:nth-of-type(14){animation-delay:1.17s}@keyframes logo-write{to{stroke-dashoffset:0}}</style></defs><path class="b" d="M15.24,59.18c-.48-5.59,2.49-10.76,4.11-15.99,4.44-13.64,9.26-27.25,13.8-40.87C25.11,28.73,16,55.37,6.68,81.35c-2.8,7.82-5.7,15.82-5.68,24.12,3.17-15.76,6.44-31.78,13.97-45.99,3.26,19.33,15.46,41.71,37.22,42.48,11.33.96,12.74-11.96,5.14-9.51" /><path class="b" d="M55.71,62.32c3.37-11.71,15.59-17.63,8.87-6.5-3.3,4.42-8.39,7.27-11.18,12.11-7.76,13.31-.7,29.05,14.03,15.57,4.98-2.02,20.34-33.65,22.47-18.78" /><path class="b" d="M61.35,4.12C50.69,24.39,17.35,78.31,15.24,59.18" /><path class="b" d="M80.55,87.76c2.05-8.17,11.78-36.86,22.69-31.84,3.9,5.27-1.35,15.3-.44,21.57,5.09,19.16,22.34-13.29,26.65-18.87,2.88-3.04,3.34,1.53,3,3.75-1.09,8.57-6.56,16.87-8.7,25.4" /><path class="b" d="M170.43,64.96c-.54,7.85,1.2,18.09,9.3,8.13,16.3-32.19,3.51,9.76-2.55,18.25-2.61,3.99-6.36,7.35-9.47,11.06-11.47,14.58,1.1,14.46,6.44-6.96" /><path class="b" d="M178.11,47.56c-3.86,9.65-17.62,40.19-30.01,36.46-3.54-3.04-1.73-9.18-1.24-13.34,3.87-20.63-4.97-14.47-13.62-6.08" /><path class="b" d="M208.59,62.32c-9.23,8.28-16.54,19.6-28.32,24.6" /><path class="b" d="M209.79,69.28c4.02-3.85,6.9-8.42,10.75-12.25,2.82-2.85,7.62-7.08,8.48-10.13.22-.72.21-1.67-.62-1.88-5.08.24-7.98,8.52-9.49,12.61" /><path class="b" d="M228.39,1c-8.28,29.07-17.55,56.21-24.54,85.8" /><path class="b" d="M246.63,63.64c-16.95,20.25-28.17,34.06-32.64,2.88" /><path class="b" d="M254.79,46.48c-4.81,8.43-8.84,20.86-8.63,30.93.27,9.64,8.17,8.07,13.27,2.99,6.07-6.08,9.9-14.01,14.95-20.87,3.79-4.07,2.82,3.85,1.73,6.79-2.38,7.28-6.46,13.99-8.36,21.45" /><path class="b" d="M256.42,41.58c.37.12.73-.21.96-.52,1.62-2.07,2.57-4.66,2.67-7.29-.74-.28-1.66.04-2.05.73s-.22,1.65.4,2.14" /><path class="b" d="M278.07,61.12c10.81-12.42,14.15-8.5,12.74,3.96-.91,6.9-4.26,13.48-6.5,20.16" /><path class="b" d="M333.09,54.64c-6.35,9.37-11.14,21.39-20.12,28.14-8.44,5.86-10.78-1.15-10.36-9.81.59-12.56-.03-17.81-11.1-6.92" /></svg>