<svg width="237" height="41" viewBox="0 0 237 41" fill="none" xmlns="http://www.w3.org/2000/svg">
<path d="M229.106 40.64C227.485 40.64 226.077 40.2773 224.882 39.552C223.73 38.8267 222.856 37.824 222.258 36.544C221.661 35.2213 221.362 33.7493 221.362 32.128V3.136C221.362 2.24 221.661 1.49333 222.258 0.896C222.856 0.298667 223.581 0 224.434 0C225.33 0 226.077 0.298667 226.674 0.896C227.272 1.49333 227.57 2.24 227.57 3.136V31.936C227.57 32.6187 227.677 33.216 227.89 33.728C228.146 34.1973 228.594 34.432 229.234 34.432C229.746 34.432 230.152 34.3253 230.45 34.112C230.749 33.856 231.069 33.6213 231.41 33.408C231.752 33.152 232.2 33.024 232.754 33.024C233.65 33.024 234.397 33.3227 234.994 33.92C235.592 34.5173 235.89 35.264 235.89 36.16C235.89 37.056 235.549 37.8453 234.866 38.528C234.226 39.2107 233.394 39.7227 232.37 40.064C231.346 40.448 230.258 40.64 229.106 40.64ZM219.634 12.608C218.824 12.608 218.12 12.352 217.522 11.84C216.968 11.2853 216.69 10.6027 216.69 9.792C216.69 9.024 216.968 8.384 217.522 7.872C218.12 7.31733 218.824 7.04 219.634 7.04H233.778C234.546 7.04 235.208 7.31733 235.762 7.872C236.36 8.384 236.658 9.024 236.658 9.792C236.658 10.6027 236.36 11.2853 235.762 11.84C235.208 12.352 234.546 12.608 233.778 12.608H219.634Z" fill="black"/>
<path d="M196.657 40.9601C199.558 40.9601 202.182 40.2987 204.529 38.9761C206.876 37.6534 208.753 35.7121 210.161 33.1521C211.526 30.5494 212.209 27.4134 212.209 23.7441C212.209 20.2881 211.569 17.2374 210.289 14.5921C209.009 11.9041 207.26 9.81341 205.041 8.32008C202.78 6.82675 200.177 6.08008 197.233 6.08008C195.014 6.08008 193.009 6.50674 191.217 7.36008C189.382 8.21341 187.846 9.36541 186.609 10.8161C185.372 12.2241 184.412 13.8027 183.729 15.5521C183.046 17.3014 182.705 19.0934 182.705 20.9281C182.705 22.2934 183.004 23.3814 183.601 24.1921C184.156 25.0027 185.222 25.4081 186.801 25.4081H205.745C205.532 27.7121 204.998 29.5894 204.145 31.0401C203.249 32.4907 202.14 33.5574 200.817 34.2401C199.494 34.8801 198.044 35.2001 196.465 35.2001C194.46 35.2001 192.86 34.7521 191.665 33.8561C190.47 32.9601 189.596 31.9147 189.041 30.7201C188.742 30.2081 188.401 29.7814 188.017 29.4401C187.59 29.0561 187.014 28.8641 186.289 28.8641C185.436 28.8641 184.753 29.1627 184.241 29.7601C183.686 30.3574 183.43 31.1467 183.473 32.1281C183.516 33.0241 183.836 33.9841 184.433 35.0081C185.03 36.0321 185.884 36.9921 186.993 37.8881C188.102 38.7841 189.468 39.5094 191.089 40.0641C192.71 40.6614 194.566 40.9601 196.657 40.9601ZM205.745 20.5441H188.849C189.148 17.8987 190.022 15.7867 191.473 14.2081C192.924 12.5867 194.865 11.7761 197.297 11.7761C199.516 11.7761 201.393 12.5014 202.929 13.9521C204.422 15.4027 205.361 17.6001 205.745 20.5441Z" fill="black"/>
<path d="M163.632 40.9601C160.731 40.9601 158.107 40.2987 155.76 38.9761C153.413 37.6534 151.536 35.7121 150.128 33.1521C148.763 30.5494 148.08 27.4134 148.08 23.7441C148.08 20.2881 148.72 17.2374 150 14.5921C151.28 11.9041 153.029 9.81341 155.248 8.32008C157.509 6.82675 160.112 6.08008 163.056 6.08008C165.275 6.08008 167.28 6.50674 169.072 7.36008C170.907 8.21341 172.443 9.36541 173.68 10.8161C174.917 12.2241 175.877 13.8027 176.56 15.5521C177.243 17.3014 177.584 19.0934 177.584 20.9281C177.584 22.2934 177.285 23.3814 176.688 24.1921C176.133 25.0027 175.067 25.4081 173.488 25.4081H154.544C154.757 27.7121 155.291 29.5894 156.144 31.0401C157.04 32.4907 158.149 33.5574 159.472 34.2401C160.795 34.8801 162.245 35.2001 163.824 35.2001C165.829 35.2001 167.429 34.7521 168.624 33.8561C169.819 32.9601 170.693 31.9147 171.248 30.7201C171.547 30.2081 171.888 29.7814 172.272 29.4401C172.699 29.0561 173.275 28.8641 174 28.8641C174.853 28.8641 175.536 29.1627 176.048 29.7601C176.603 30.3574 176.859 31.1467 176.816 32.1281C176.773 33.0241 176.453 33.9841 175.856 35.0081C175.259 36.0321 174.405 36.9921 173.296 37.8881C172.187 38.7841 170.821 39.5094 169.2 40.0641C167.579 40.6614 165.723 40.9601 163.632 40.9601ZM154.544 20.5441H171.44C171.141 17.8987 170.267 15.7867 168.816 14.2081C167.365 12.5867 165.424 11.7761 162.992 11.7761C160.773 11.7761 158.896 12.5014 157.36 13.9521C155.867 15.4027 154.928 17.6001 154.544 20.5441Z" fill="black"/>
<path d="M85.6409 40.7041C84.4036 40.7041 83.4009 40.3201 82.6329 39.5521C81.9076 38.7841 81.5449 37.6535 81.5449 36.1601C81.5449 34.7948 81.9076 33.7281 82.6329 32.9601C83.4009 32.1495 84.4036 31.7441 85.6409 31.7441C86.8783 31.7441 87.8596 32.1495 88.5849 32.9601C89.3529 33.7281 89.7369 34.7948 89.7369 36.1601C89.7369 37.6535 89.3529 38.7841 88.5849 39.5521C87.8596 40.3201 86.8783 40.7041 85.6409 40.7041Z" fill="black"/>
<path d="M61.1916 40.9601C58.2903 40.9601 55.6663 40.2987 53.3196 38.9761C50.973 37.6534 49.0956 35.7121 47.6876 33.1521C46.3223 30.5494 45.6396 27.4134 45.6396 23.7441C45.6396 20.2881 46.2796 17.2374 47.5596 14.5921C48.8396 11.9041 50.589 9.81341 52.8076 8.32008C55.069 6.82675 57.6716 6.08008 60.6157 6.08008C62.8343 6.08008 64.8396 6.50674 66.6316 7.36008C68.4663 8.21341 70.0023 9.36541 71.2397 10.8161C72.477 12.2241 73.437 13.8027 74.1196 15.5521C74.8023 17.3014 75.1437 19.0934 75.1437 20.9281C75.1437 22.2934 74.845 23.3814 74.2476 24.1921C73.693 25.0027 72.6263 25.4081 71.0476 25.4081H52.1036C52.317 27.7121 52.8503 29.5894 53.7036 31.0401C54.5996 32.4907 55.709 33.5574 57.0316 34.2401C58.3543 34.8801 59.805 35.2001 61.3836 35.2001C63.389 35.2001 64.989 34.7521 66.1837 33.8561C67.3783 32.9601 68.253 31.9147 68.8076 30.7201C69.1063 30.2081 69.4476 29.7814 69.8316 29.4401C70.2583 29.0561 70.8343 28.8641 71.5597 28.8641C72.413 28.8641 73.0956 29.1627 73.6076 29.7601C74.1623 30.3574 74.4183 31.1467 74.3757 32.1281C74.333 33.0241 74.013 33.9841 73.4156 35.0081C72.8183 36.0321 71.965 36.9921 70.8556 37.8881C69.7463 38.7841 68.381 39.5094 66.7596 40.0641C65.1383 40.6614 63.2823 40.9601 61.1916 40.9601ZM52.1036 20.5441H68.9996C68.701 17.8987 67.8263 15.7867 66.3757 14.2081C64.925 12.5867 62.9836 11.7761 60.5516 11.7761C58.333 11.7761 56.4556 12.5014 54.9196 13.9521C53.4263 15.4027 52.4876 17.6001 52.1036 20.5441Z" fill="black"/>
<path d="M12.352 40.6399C11.712 40.6399 11.0933 40.4266 10.496 39.9999C9.89867 39.6159 9.472 39.0399 9.216 38.2719L0.192 10.6879C0.064 10.3466 0 9.96257 0 9.5359C0 8.72524 0.277333 7.9999 0.832 7.3599C1.42933 6.7199 2.19733 6.3999 3.136 6.3999C3.81867 6.3999 4.43733 6.5919 4.992 6.9759C5.54667 7.3599 5.90933 7.85057 6.08 8.4479L13.056 31.4239L11.776 31.5519L18.368 9.4719C18.624 8.66124 19.0293 8.0639 19.584 7.6799C20.1813 7.25324 20.8213 7.0399 21.504 7.0399C22.1013 7.0399 22.6987 7.25324 23.296 7.6799C23.936 8.0639 24.3627 8.66124 24.576 9.4719L30.976 31.2959L29.696 31.1679L36.544 8.4479C36.7573 7.85057 37.12 7.3599 37.632 6.9759C38.1867 6.5919 38.8053 6.3999 39.488 6.3999C40.4267 6.3999 41.152 6.7199 41.664 7.3599C42.176 7.95724 42.432 8.66124 42.432 9.4719C42.432 9.89857 42.368 10.3039 42.24 10.6879L33.344 38.2719C33.088 39.0399 32.6613 39.6159 32.064 39.9999C31.4667 40.4266 30.848 40.6399 30.208 40.6399C29.568 40.6399 28.9493 40.4266 28.352 39.9999C27.7547 39.5732 27.328 38.9759 27.072 38.2079L20.864 17.1519H21.76L15.552 38.2079C15.3387 38.9759 14.9333 39.5732 14.336 39.9999C13.7387 40.4266 13.0773 40.6399 12.352 40.6399Z" fill="black"/>
<path d="M131.16 6.40013C131.8 6.40013 132.418 6.61347 133.016 7.04013C133.613 7.42413 134.04 8.00013 134.296 8.76813L143.32 36.3521C143.448 36.6935 143.512 37.0775 143.512 37.5041C143.512 38.3148 143.234 39.0401 142.68 39.6801C142.082 40.3201 141.314 40.6401 140.376 40.6401C139.693 40.6401 139.074 40.4481 138.52 40.0641C137.965 39.6801 137.602 39.1895 137.432 38.5921L130.456 15.6161L131.736 15.4881L125.144 37.5681C124.888 38.3788 124.482 38.9761 123.928 39.3601C123.33 39.7868 122.69 40.0001 122.008 40.0001C121.41 40.0001 120.813 39.7868 120.216 39.3601C119.576 38.9761 119.149 38.3788 118.936 37.5681L112.536 15.7441L113.816 15.8721L106.968 38.5921C106.754 39.1895 106.392 39.6801 105.88 40.0641C105.325 40.4481 104.706 40.6401 104.024 40.6401C103.085 40.6401 102.36 40.3201 101.848 39.6801C101.336 39.0828 101.08 38.3788 101.08 37.5681C101.08 37.1415 101.144 36.7361 101.272 36.3521L110.168 8.76813C110.424 8.00013 110.85 7.42413 111.448 7.04013C112.045 6.61346 112.664 6.40013 113.304 6.40013C113.944 6.40013 114.562 6.61347 115.16 7.04013C115.757 7.4668 116.184 8.06413 116.44 8.83213L122.648 29.8881L121.752 29.8881L127.96 8.83213C128.173 8.06413 128.578 7.4668 129.176 7.04013C129.773 6.61347 130.434 6.40013 131.16 6.40013Z" fill="black"/>
</svg>
